<svg width="70" height="70" viewBox="0 0 70 70" fill="none" xmlns="http://www.w3.org/2000/svg">
<path d="M28.4375 45.9375H57.2469L51.6031 51.6031L54.6875 54.6875L65.625 43.75L54.6875 32.8125L51.6031 35.8969L57.2469 41.5625H28.4375V45.9375Z" fill="#4DA6FF"/>
<path d="M48.125 30.625V21.875C48.1267 21.5871 48.0715 21.3018 47.9626 21.0352C47.8538 20.7687 47.6934 20.5263 47.4906 20.3219L32.1781 5.00941C31.9737 4.80667 31.7313 4.64627 31.4648 4.53741C31.1983 4.42855 30.9129 4.37337 30.625 4.37504H8.75C7.58968 4.37504 6.47688 4.83597 5.65641 5.65644C4.83594 6.47692 4.375 7.58971 4.375 8.75004V61.25C4.375 62.4104 4.83594 63.5232 5.65641 64.3436C6.47688 65.1641 7.58968 65.625 8.75 65.625H43.75C44.9103 65.625 46.0231 65.1641 46.8436 64.3436C47.6641 63.5232 48.125 62.4104 48.125 61.25V56.875H43.75V61.25H8.75V8.75004H26.25V21.875C26.25 23.0354 26.7109 24.1482 27.5314 24.9686C28.3519 25.7891 29.4647 26.25 30.625 26.25H43.75V30.625H48.125ZM30.625 21.875V9.64691L42.8531 21.875H30.625Z" fill="#4DA6FF"/>
</svg>
