<svg width="70" height="70" viewBox="0 0 70 70" fill="none" xmlns="http://www.w3.org/2000/svg">
<path d="M2 10H24.2418C25.539 9.99984 26.8236 10.2553 28.0221 10.7517C29.2206 11.2482 30.3095 11.9759 31.2267 12.8934L41.5 23.1667M11.875 39.625H2M23.3958 19.875L29.9792 26.4583C30.4114 26.8906 30.7543 27.4038 30.9883 27.9686C31.2222 28.5333 31.3426 29.1387 31.3426 29.75C31.3426 30.3613 31.2222 30.9667 30.9883 31.5314C30.7543 32.0962 30.4114 32.6094 29.9792 33.0417C29.5469 33.4739 29.0337 33.8168 28.4689 34.0508C27.9042 34.2847 27.2988 34.4051 26.6875 34.4051C26.0762 34.4051 25.4708 34.2847 24.9061 34.0508C24.3413 33.8168 23.8281 33.4739 23.3958 33.0417L18.4583 28.1042C15.6275 30.935 11.141 31.2543 7.93488 28.8514L6.9375 28.1042" stroke="#4DA6FF" stroke-width="4" stroke-linecap="round" stroke-linejoin="round"/>
<path d="M11.875 31.3952V46.2077C11.875 52.4158 11.875 55.5165 13.8039 57.4454C15.7328 59.3743 18.8336 59.3743 25.0417 59.3743H54.6667C60.8747 59.3743 63.9755 59.3743 65.9044 57.4454C67.8333 55.5165 67.8333 52.4158 67.8333 46.2077V36.3327C67.8333 30.1246 67.8333 27.0239 65.9044 25.0949C63.9755 23.166 60.8747 23.166 54.6667 23.166H26.6875" stroke="#4DA6FF" stroke-width="4" stroke-linecap="round" stroke-linejoin="round"/>
<path d="M45.6146 41.2702C45.6146 42.7979 45.0077 44.2631 43.9274 45.3434C42.8471 46.4237 41.3819 47.0306 39.8542 47.0306C38.3264 47.0306 36.8612 46.4237 35.7809 45.3434C34.7006 44.2631 34.0938 42.7979 34.0938 41.2702C34.0937 39.7424 34.7006 38.2772 35.7809 37.197C36.8612 36.1167 38.3264 35.5098 39.8542 35.5098C41.3819 35.5098 42.8471 36.1167 43.9274 37.197C45.0077 38.2772 45.6146 39.7424 45.6146 41.2702Z" stroke="#4DA6FF" stroke-width="4" stroke-linecap="round" stroke-linejoin="round"/>
</svg>
