<svg width="120" height="120" viewBox="0 0 120 120" fill="none" xmlns="http://www.w3.org/2000/svg">
<path opacity="0.3" d="M45 50C50.5228 50 55 45.5228 55 40C55 34.4772 50.5228 30 45 30C39.4772 30 35 34.4772 35 40C35 45.5228 39.4772 50 45 50Z" fill="#4DA6FF" fill-opacity="0.6"/>
<path opacity="0.3" d="M45 75C31.5 75 16 81.45 15 85.05V90H75V85C74 81.45 58.5 75 45 75Z" fill="#4DA6FF" fill-opacity="0.6"/>
<path d="M83.35 65.65C90.2 70.3 95 76.6 95 85V100H115V85C115 74.1 97.15 67.65 83.35 65.65ZM75 60C86.05 60 95 51.05 95 40C95 28.95 86.05 20 75 20C72.65 20 70.45 20.5 68.35 21.2C72.6526 26.5211 74.9998 33.157 74.9998 40C74.9998 46.843 72.6526 53.4789 68.35 58.8C70.45 59.5 72.65 60 75 60ZM45 60C56.05 60 65 51.05 65 40C65 28.95 56.05 20 45 20C33.95 20 25 28.95 25 40C25 51.05 33.95 60 45 60ZM45 30C50.5 30 55 34.5 55 40C55 45.5 50.5 50 45 50C39.5 50 35 45.5 35 40C35 34.5 39.5 30 45 30ZM45 65C31.65 65 5 71.7 5 85V100H85V85C85 71.7 58.35 65 45 65ZM75 90H15V85.05C16 81.45 31.5 75 45 75C58.5 75 74 81.45 75 85V90Z" fill="#4DA6FF"/>
</svg>
