<svg width="103" height="103" viewBox="0 0 103 103" fill="none" xmlns="http://www.w3.org/2000/svg">
<path d="M51.5 34.333C51.5 34.333 51.5 34.333 54.7617 30.0413C58.5383 25.063 64.1175 21.458 70.8125 21.458C81.4987 21.458 90.125 30.0843 90.125 40.7705C90.125 44.7618 88.9233 48.4526 86.8633 51.4997C83.3871 56.6926 51.5 90.1247 51.5 90.1247C51.5 90.1247 19.6129 56.6926 16.1367 51.4997C14.0767 48.4526 12.875 44.7618 12.875 40.7705C12.875 30.0843 21.5012 21.458 32.1875 21.458C38.8825 21.458 44.5046 25.063 48.2383 30.0413C51.5 34.333 51.5 34.333 51.5 34.333Z" fill="#4DA6FF" fill-opacity="0.3"/>
<path d="M51.5 34.333C51.5 34.333 51.5 34.333 48.2383 30.0413C44.4617 25.063 38.8825 21.458 32.1875 21.458C21.5012 21.458 12.875 30.0843 12.875 40.7705C12.875 44.7618 14.0767 48.4526 16.1367 51.4997C19.6129 56.6926 51.5 90.1247 51.5 90.1247M51.5 34.333C51.5 34.333 51.5 34.333 54.7617 30.0413C58.5383 25.063 64.1175 21.458 70.8125 21.458C81.4987 21.458 90.125 30.0843 90.125 40.7705C90.125 44.7618 88.9233 48.4526 86.8633 51.4997C83.3871 56.6926 51.5 90.1247 51.5 90.1247" stroke="#4DA6FF" stroke-width="7" stroke-linecap="round" stroke-linejoin="round"/>
</svg>
