<svg width="70" height="70" viewBox="0 0 70 70" fill="none" xmlns="http://www.w3.org/2000/svg">
<path d="M20.6987 6C22.3786 6 29.098 21.1187 29.098 22.7986C29.098 26.1583 24.0585 29.518 22.3786 32.8777C20.6987 36.2374 24.0585 39.5971 27.4182 42.9568C28.7285 44.2671 34.1376 49.6763 37.4973 47.9964C40.857 46.3165 44.2167 41.277 47.5764 41.277C49.2563 41.277 64.375 47.9964 64.375 49.6763C64.375 56.3957 59.3354 61.4353 54.2959 63.1151C49.2563 64.795 45.8966 64.795 39.1772 63.1151C32.4577 61.4353 27.4182 59.7554 19.0189 51.3561C10.6196 42.9568 8.93975 37.9173 7.25989 31.1978C5.58004 24.4784 5.58004 21.1187 7.25989 16.0791C8.93975 11.0396 13.9793 6 20.6987 6Z" fill="#A1D0FF" fill-opacity="0.4" stroke="#4DA6FF" stroke-width="4" stroke-linecap="round" stroke-linejoin="round"/>
<path d="M46.7705 23.7403C45.0907 22.0268 43.0748 20.6157 40.8574 19.5742ZM46.7705 23.7403C48.4168 25.3865 49.7943 27.3688 50.8022 29.519Z" fill="#A1D0FF" fill-opacity="0.4"/>
<path d="M40.8574 19.5742C43.0748 20.6157 45.0907 22.0268 46.7705 23.7403C48.4168 25.3865 49.7943 27.3688 50.8022 29.519" stroke="#4DA6FF" stroke-width="4" stroke-linecap="round" stroke-linejoin="round"/>
<path d="M56.5469 13.8952C53.1872 10.5355 48.954 8.08294 44.2168 6.83984ZM56.5469 13.8952C59.8731 17.255 62.3256 21.4546 63.5351 26.1582Z" fill="#A1D0FF" fill-opacity="0.4"/>
<path d="M44.2168 6.83984C48.954 8.08294 53.1872 10.5355 56.5469 13.8952C59.8731 17.255 62.3256 21.4546 63.5351 26.1582" stroke="#4DA6FF" stroke-width="4" stroke-linecap="round" stroke-linejoin="round"/>
</svg>
