<svg width="103" height="103" viewBox="0 0 103 103" fill="none" xmlns="http://www.w3.org/2000/svg">
<path d="M38.625 49.3538C44.5506 49.3538 49.3542 44.5502 49.3542 38.6247C49.3542 32.6991 44.5506 27.8955 38.625 27.8955C32.6994 27.8955 27.8958 32.6991 27.8958 38.6247C27.8958 44.5502 32.6994 49.3538 38.625 49.3538Z" fill="#4DA6FF"/>
<path d="M38.625 87.9792C38.625 87.9792 12.875 57.9375 12.875 38.625C12.875 24.4196 24.4196 12.875 38.625 12.875C52.8304 12.875 64.375 24.4196 64.375 38.625C64.375 57.9375 38.625 87.9792 38.625 87.9792Z" fill="#4DA6FF" fill-opacity="0.3" stroke="#4DA6FF" stroke-width="7" stroke-linecap="round" stroke-linejoin="round"/>
<path d="M68.6667 77.25H94.4167H68.6667Z" fill="#4DA6FF" fill-opacity="0.3"/>
<path d="M68.6667 77.25H94.4167" stroke="#4DA6FF" stroke-width="7" stroke-linecap="round" stroke-linejoin="round"/>
<path d="M81.5417 64.375V90.125V64.375Z" fill="#4DA6FF" fill-opacity="0.3"/>
<path d="M81.5417 64.375V90.125" stroke="#4DA6FF" stroke-width="7" stroke-linecap="round" stroke-linejoin="round"/>
</svg>
