<svg width="70" height="70" viewBox="0 0 70 70" fill="none" xmlns="http://www.w3.org/2000/svg">
<path d="M39.5 43.5H53.25V35.25H39.5V43.5ZM56 49H39.5L36.3375 52.1625C36.1083 52.3917 35.8563 52.5182 35.5813 52.542C35.3063 52.5658 35.0542 52.531 34.825 52.4375C34.5958 52.344 34.4006 52.1946 34.2393 51.9892C34.0779 51.7839 33.9982 51.5208 34 51.2V32.5C34 31.7208 34.264 31.0682 34.792 30.542C35.32 30.0158 35.9727 29.7518 36.75 29.75H56C56.7792 29.75 57.4328 30.014 57.9608 30.542C58.4888 31.07 58.7518 31.7227 58.75 32.5V46.25C58.75 47.0292 58.486 47.6827 57.958 48.2107C57.43 48.7387 56.7773 49.0018 56 49ZM17.5 65.5C15.9875 65.5 14.6932 64.9619 13.617 63.8858C12.5408 62.8096 12.0018 61.5143 12 60V10.5C12 8.9875 12.539 7.69317 13.617 6.617C14.695 5.54083 15.9893 5.00183 17.5 5H45C46.5125 5 47.8078 5.539 48.8858 6.617C49.9638 7.695 50.5018 8.98933 50.5 10.5V21.5C50.5 22.2792 50.236 22.9327 49.708 23.4607C49.18 23.9887 48.5273 24.2518 47.75 24.25C46.9727 24.2482 46.32 23.9842 45.792 23.458C45.264 22.9318 45 22.2792 45 21.5V10.5H17.5V60H45V57.25C45 56.4708 45.264 55.8182 45.792 55.292C46.32 54.7658 46.9727 54.5018 47.75 54.5C48.5273 54.4982 49.1809 54.7622 49.7108 55.292C50.2406 55.8218 50.5037 56.4745 50.5 57.25V60C50.5 61.5125 49.9619 62.8078 48.8858 63.8858C47.8096 64.9638 46.5143 65.5018 45 65.5H17.5ZM31.25 18.75C32.0292 18.75 32.6828 18.486 33.2108 17.958C33.7388 17.43 34.0018 16.7773 34 16C33.9982 15.2227 33.7342 14.57 33.208 14.042C32.6818 13.514 32.0292 13.25 31.25 13.25C30.4708 13.25 29.8182 13.514 29.292 14.042C28.7658 14.57 28.5018 15.2227 28.5 16C28.4982 16.7773 28.7622 17.4309 29.292 17.9607C29.8218 18.4906 30.4745 18.7537 31.25 18.75Z" fill="#4DA6FF"/>
</svg>
