<svg width="497" height="438" viewBox="0 0 497 438" fill="none" xmlns="http://www.w3.org/2000/svg">
<g filter="url(#filter0_dddd_317_34)">
<line x1="20" y1="349.25" x2="481" y2="349.25" stroke="#4DA6FF" stroke-opacity="0.6" stroke-width="1.5"/>
<path d="M370 272C370 260.954 378.954 252 390 252H428C439.046 252 448 260.954 448 272V350H370V272Z" fill="url(#paint0_linear_317_34)" fill-opacity="0.6"/>
<path d="M265 223C265 211.954 273.954 203 285 203H323C334.046 203 343 211.954 343 223V350H265V223Z" fill="url(#paint1_linear_317_34)" fill-opacity="0.6"/>
<path d="M159 95C159 83.9543 167.954 75 179 75H217C228.046 75 237 83.9543 237 95V350H159V95Z" fill="url(#paint2_linear_317_34)" fill-opacity="0.6"/>
<path d="M54 54C54 42.9543 62.9543 34 74 34H112C123.046 34 132 42.9543 132 54V350H54V54Z" fill="url(#paint3_linear_317_34)" fill-opacity="0.6"/>
<path d="M79 18.32C80.56 18.32 81.66 17.32 81.66 15.9C81.66 14.44 80.56 13.4 79 13.4C77.44 13.4 76.34 14.44 76.34 15.9C76.34 17.32 77.44 18.32 79 18.32ZM73.94 15.96C73.94 14.68 74.94 13.2 76.36 12.4C75.18 11.6 74.34 10.3 74.34 9.24C74.34 6.9 76.28 5.24 79 5.24C81.74 5.24 83.66 6.9 83.66 9.24C83.66 10.32 82.82 11.62 81.64 12.4C83.06 13.2 84.06 14.68 84.06 15.96C84.06 18.54 81.96 20.34 79 20.34C76.02 20.34 73.94 18.54 73.94 15.96ZM76.74 9.28C76.74 10.5 77.68 11.36 79 11.36C80.32 11.36 81.26 10.5 81.26 9.28C81.26 8.08 80.32 7.26 79 7.26C77.68 7.26 76.74 8.08 76.74 9.28ZM93.3927 12.52C94.7327 13.3 95.5927 14.72 95.5927 15.96C95.5927 18.44 93.5127 20.2 90.5327 20.2C87.5727 20.2 85.5127 18.36 85.5127 15.78H87.9127C87.9127 17.12 88.9927 18.08 90.5327 18.08C92.1327 18.08 93.2727 17.12 93.2727 15.78C93.2727 14.46 92.1527 13.52 90.5727 13.52H89.5527V11.54H90.6127C92.0527 11.54 93.0527 10.7 93.0527 9.5C93.0527 8.32 92.0727 7.48 90.6727 7.48C89.3127 7.48 88.3527 8.32 88.3527 9.52H85.9527C85.9527 7.08 87.8927 5.36 90.6727 5.36C93.4127 5.36 95.3527 7 95.3527 9.34C95.3527 10.46 94.5927 11.78 93.3927 12.52ZM101.026 20.18L110.306 5.34H112.706L103.366 20.18H101.026ZM97.6063 9.14C97.6063 6.88 99.3463 5.1 101.546 5.1C103.726 5.1 105.466 6.88 105.466 9.14C105.466 11.4 103.726 13.18 101.546 13.18C99.3463 13.18 97.6063 11.4 97.6063 9.14ZM99.8263 9.14C99.8263 10.16 100.586 10.96 101.546 10.96C102.506 10.96 103.266 10.16 103.266 9.14C103.266 8.12 102.506 7.32 101.546 7.32C100.586 7.32 99.8263 8.12 99.8263 9.14ZM108.086 16.26C108.086 14 109.806 12.22 112.026 12.22C114.206 12.22 115.926 14 115.926 16.26C115.926 18.52 114.206 20.3 112.026 20.3C109.806 20.3 108.086 18.52 108.086 16.26ZM110.286 16.26C110.286 17.28 111.046 18.08 112.026 18.08C112.986 18.08 113.726 17.28 113.726 16.26C113.726 15.24 112.986 14.44 112.026 14.44C111.046 14.44 110.286 15.24 110.286 16.26Z" fill="#4DA6FF" fill-opacity="0.6"/>
<path d="M82.5912 362.685H91.3591V364.166H87.8398V374H86.1215V364.166H82.5912V362.685ZM96.9259 371.89H97.0475L100.197 362.685H102.053L97.9867 374H95.9922L91.9259 362.685H93.7878L96.9259 371.89Z" fill="#6C6C6C"/>
<path d="M179.8 61.16H177.16L182.82 48.48L176.28 48.5V46.4H185.26L185.46 48.48L179.8 61.16ZM192.106 48.42C190.486 48.42 189.346 49.56 189.346 51.22C189.346 52.86 190.486 54.04 192.106 54.04C193.706 54.04 194.846 52.86 194.846 51.22C194.846 49.56 193.706 48.42 192.106 48.42ZM186.946 51.22C186.946 48.34 189.066 46.32 192.086 46.32C195.126 46.32 197.246 48.34 197.246 51.22C197.246 52.28 196.846 53.24 196.406 54.02L192.446 61.1H189.686L192.566 56.08C192.386 56.1 192.206 56.12 192.026 56.12C189.026 56.1 186.946 54.08 186.946 51.22ZM202.714 61.18L211.994 46.34H214.394L205.054 61.18H202.714ZM199.294 50.14C199.294 47.88 201.034 46.1 203.234 46.1C205.414 46.1 207.154 47.88 207.154 50.14C207.154 52.4 205.414 54.18 203.234 54.18C201.034 54.18 199.294 52.4 199.294 50.14ZM201.514 50.14C201.514 51.16 202.274 51.96 203.234 51.96C204.194 51.96 204.954 51.16 204.954 50.14C204.954 49.12 204.194 48.32 203.234 48.32C202.274 48.32 201.514 49.12 201.514 50.14ZM209.774 57.26C209.774 55 211.494 53.22 213.714 53.22C215.894 53.22 217.614 55 217.614 57.26C217.614 59.52 215.894 61.3 213.714 61.3C211.494 61.3 209.774 59.52 209.774 57.26ZM211.974 57.26C211.974 58.28 212.734 59.08 213.714 59.08C214.674 59.08 215.414 58.28 215.414 57.26C215.414 56.24 214.674 55.44 213.714 55.44C212.734 55.44 211.974 56.24 211.974 57.26Z" fill="#4DA6FF" fill-opacity="0.6"/>
<path d="M174.133 371.514H172.646V361.337H174.133V371.514ZM162.801 365.751C162.801 365.088 162.963 364.494 163.287 363.967C163.615 363.44 164.063 363.029 164.63 362.735C165.201 362.436 165.834 362.287 166.53 362.287C167.227 362.287 167.858 362.436 168.425 362.735C168.993 363.029 169.438 363.44 169.762 363.967C170.087 364.494 170.249 365.088 170.249 365.751C170.249 366.425 170.087 367.028 169.762 367.558C169.438 368.085 168.993 368.495 168.425 368.79C167.858 369.085 167.227 369.232 166.53 369.232C165.831 369.232 165.197 369.085 164.63 368.79C164.063 368.495 163.615 368.085 163.287 367.558C162.963 367.028 162.801 366.425 162.801 365.751ZM164.254 365.751C164.25 366.182 164.346 366.564 164.541 366.895C164.74 367.227 165.013 367.484 165.359 367.669C165.705 367.849 166.096 367.939 166.53 367.939C166.958 367.939 167.343 367.849 167.685 367.669C168.031 367.484 168.302 367.227 168.497 366.895C168.696 366.564 168.796 366.182 168.796 365.751C168.796 365.328 168.696 364.952 168.497 364.624C168.302 364.293 168.031 364.037 167.685 363.856C167.339 363.672 166.954 363.58 166.53 363.58C166.099 363.58 165.709 363.672 165.359 363.856C165.013 364.037 164.74 364.293 164.541 364.624C164.346 364.952 164.25 365.328 164.254 365.751ZM164.972 370.481H166.464V373.823H174.541V375.039H164.972V370.481ZM187.701 375.354H186.232V367.713H183.442V366.503H186.232V361.326H187.701V375.354ZM176.668 362.569H183.21V363.785H178.16V366.503H182.624V367.685H178.16V370.818C179.416 370.814 180.481 370.785 181.353 370.729C182.226 370.674 183.105 370.571 183.989 370.42L184.149 371.63C183.169 371.785 182.201 371.891 181.243 371.95C180.285 372.009 179.121 372.041 177.751 372.044H176.668V362.569ZM191.723 367.89C192.497 367.878 193.226 367.842 193.911 367.779C194.6 367.716 195.3 367.606 196.011 367.448L196.154 368.657C195.307 368.842 194.49 368.969 193.701 369.039C192.917 369.109 192.071 369.144 191.165 369.144H190.259V362.58H191.723V367.89ZM191.315 374.105C192.184 373.987 192.978 373.755 193.696 373.409C194.414 373.063 194.981 372.639 195.397 372.138C195.814 371.637 196.022 371.109 196.022 370.552V370.077H197.486V370.552C197.486 371.112 197.694 371.643 198.11 372.144C198.526 372.641 199.094 373.063 199.812 373.409C200.534 373.755 201.333 373.987 202.21 374.105L201.646 375.26C200.92 375.145 200.239 374.959 199.602 374.702C198.965 374.444 198.401 374.123 197.911 373.74C197.421 373.354 197.035 372.921 196.751 372.442C196.467 372.921 196.081 373.354 195.591 373.74C195.105 374.123 194.543 374.444 193.906 374.702C193.272 374.959 192.595 375.145 191.873 375.26L191.315 374.105ZM194.431 364.459H197.287V361.613H198.679V369.547H197.287V365.652H194.431V364.459ZM200.11 361.337H201.525V370.796H200.11V361.337ZM219.442 373.646H206.63V372.398H212.254V369.409H207.752V368.227H209.84V363.829H207.718V362.624H218.271V363.829H216.127V368.227H218.227V369.409H213.713V372.398H219.442V373.646ZM214.669 368.227V363.829H211.315V368.227H214.669ZM227.238 363.354H222.309V364.635H226.84V365.768H222.309V367.188C223.617 367.184 224.67 367.162 225.47 367.122C226.273 367.077 227.083 366.989 227.901 366.856L228.017 368.039C227.144 368.182 226.28 368.274 225.425 368.315C224.575 368.355 223.394 368.376 221.884 368.376H220.84V362.155H227.238V363.354ZM222.641 369.431H231.796V372.823H224.144V374.022H232.293V375.193H222.668V371.724H230.326V370.597H222.641V369.431ZM227.773 364.464H230.326V361.326H231.796V368.84H230.326V365.657H227.773V364.464Z" fill="#6C6C6C"/>
<path d="M282.32 186.98C285.26 184.16 289.1 181.6 289.1 179.22C289.1 177.66 288.12 176.56 286.72 176.56C285.62 176.56 284.52 177.34 284.02 178.46L281.94 177.54C282.78 175.66 284.76 174.34 286.72 174.34C289.54 174.34 291.5 176.36 291.5 179.22C291.5 182.28 288.42 184.78 285.78 186.98H291.72V189.08H282.52L282.32 186.98ZM298.32 187.12C299.96 187.12 301.1 185.96 301.1 184.32C301.1 182.66 299.96 181.5 298.32 181.5C296.72 181.5 295.6 182.66 295.6 184.32C295.6 185.96 296.72 187.12 298.32 187.12ZM293.2 184.32C293.2 183.26 293.58 182.3 294.02 181.52L297.98 174.42H300.74L297.88 179.46C298.04 179.44 298.22 179.4 298.4 179.4C301.4 179.44 303.5 181.46 303.5 184.32C303.5 187.2 301.36 189.22 298.34 189.22C295.3 189.22 293.2 187.2 293.2 184.32ZM308.968 189.18L318.248 174.34H320.648L311.308 189.18H308.968ZM305.548 178.14C305.548 175.88 307.288 174.1 309.488 174.1C311.668 174.1 313.408 175.88 313.408 178.14C313.408 180.4 311.668 182.18 309.488 182.18C307.288 182.18 305.548 180.4 305.548 178.14ZM307.768 178.14C307.768 179.16 308.528 179.96 309.488 179.96C310.448 179.96 311.208 179.16 311.208 178.14C311.208 177.12 310.448 176.32 309.488 176.32C308.528 176.32 307.768 177.12 307.768 178.14ZM316.028 185.26C316.028 183 317.748 181.22 319.968 181.22C322.148 181.22 323.868 183 323.868 185.26C323.868 187.52 322.148 189.3 319.968 189.3C317.748 189.3 316.028 187.52 316.028 185.26ZM318.228 185.26C318.228 186.28 318.988 187.08 319.968 187.08C320.928 187.08 321.668 186.28 321.668 185.26C321.668 184.24 320.928 183.44 319.968 183.44C318.988 183.44 318.228 184.24 318.228 185.26Z" fill="#4DA6FF" fill-opacity="0.6"/>
<path d="M274.359 362.144C274.941 362.144 275.475 362.243 275.961 362.442C276.451 362.641 276.864 362.924 277.199 363.293H280.707V361.326H282.188V369.591H280.707V367.702H277.193C276.858 368.066 276.449 368.35 275.967 368.552C275.484 368.751 274.958 368.849 274.387 368.845C273.691 368.845 273.063 368.703 272.503 368.42C271.947 368.133 271.51 367.735 271.193 367.227C270.877 366.718 270.72 366.142 270.724 365.497C270.72 364.853 270.875 364.276 271.188 363.768C271.505 363.256 271.939 362.858 272.492 362.575C273.048 362.287 273.67 362.144 274.359 362.144ZM272.133 365.497C272.133 365.902 272.228 366.263 272.42 366.58C272.615 366.897 272.882 367.144 273.221 367.32C273.564 367.497 273.952 367.584 274.387 367.58C274.81 367.584 275.192 367.497 275.53 367.32C275.869 367.144 276.134 366.897 276.326 366.58C276.517 366.26 276.613 365.899 276.613 365.497C276.613 365.085 276.517 364.722 276.326 364.409C276.134 364.092 275.869 363.847 275.53 363.674C275.192 363.501 274.81 363.416 274.387 363.42C273.952 363.416 273.564 363.501 273.221 363.674C272.878 363.847 272.611 364.092 272.42 364.409C272.228 364.722 272.133 365.085 272.133 365.497ZM272.768 372.602C272.764 372.039 272.952 371.554 273.331 371.149C273.711 370.744 274.256 370.435 274.967 370.221C275.681 370.007 276.525 369.901 277.497 369.901C278.466 369.901 279.306 370.007 280.017 370.221C280.727 370.435 281.274 370.744 281.657 371.149C282.041 371.554 282.232 372.039 282.232 372.602C282.232 373.166 282.041 373.65 281.657 374.055C281.274 374.46 280.727 374.77 280.017 374.983C279.306 375.197 278.466 375.304 277.497 375.304C276.525 375.304 275.681 375.197 274.967 374.983C274.256 374.77 273.711 374.46 273.331 374.055C272.952 373.65 272.764 373.166 272.768 372.602ZM274.221 372.602C274.217 372.923 274.346 373.199 274.608 373.431C274.869 373.659 275.245 373.834 275.735 373.956C276.228 374.074 276.816 374.133 277.497 374.133C278.182 374.133 278.77 374.074 279.26 373.956C279.753 373.834 280.131 373.659 280.392 373.431C280.654 373.199 280.785 372.923 280.785 372.602C280.785 372.274 280.654 371.994 280.392 371.762C280.131 371.53 279.753 371.354 279.26 371.232C278.77 371.11 278.182 371.05 277.497 371.05C276.816 371.05 276.228 371.11 275.735 371.232C275.245 371.354 274.869 371.53 274.608 371.762C274.346 371.994 274.217 372.274 274.221 372.602ZM277.884 364.492C277.983 364.827 278.033 365.162 278.033 365.497C278.033 365.832 277.983 366.164 277.884 366.492H280.707V364.492H277.884ZM288.845 363.569C288.845 364.18 288.981 364.766 289.254 365.326C289.53 365.886 289.922 366.381 290.431 366.812C290.943 367.243 291.541 367.571 292.226 367.796L291.436 368.961C290.678 368.692 290.015 368.298 289.447 367.779C288.884 367.26 288.447 366.65 288.138 365.95C287.832 366.746 287.387 367.438 286.801 368.028C286.219 368.613 285.525 369.055 284.718 369.354L283.917 368.177C284.632 367.923 285.248 367.558 285.768 367.083C286.287 366.604 286.683 366.052 286.956 365.425C287.232 364.799 287.372 364.138 287.376 363.442V362.055H288.845V363.569ZM285.806 372.696C285.806 372.158 285.994 371.696 286.37 371.309C286.749 370.919 287.291 370.621 287.994 370.414C288.701 370.208 289.538 370.105 290.503 370.105C291.46 370.105 292.287 370.208 292.983 370.414C293.683 370.621 294.219 370.919 294.591 371.309C294.967 371.696 295.155 372.158 295.155 372.696C295.155 373.245 294.967 373.715 294.591 374.105C294.219 374.495 293.685 374.792 292.989 374.994C292.293 375.201 291.464 375.304 290.503 375.304C289.534 375.304 288.698 375.201 287.994 374.994C287.291 374.792 286.749 374.495 286.37 374.105C285.994 373.715 285.806 373.245 285.806 372.696ZM287.293 372.696C287.289 373.002 287.412 373.262 287.663 373.475C287.917 373.689 288.285 373.853 288.768 373.967C289.25 374.077 289.829 374.134 290.503 374.138C291.519 374.131 292.306 374.004 292.862 373.757C293.422 373.51 293.701 373.157 293.701 372.696C293.701 372.401 293.574 372.149 293.32 371.939C293.07 371.726 292.703 371.564 292.221 371.453C291.742 371.339 291.169 371.282 290.503 371.282C289.832 371.282 289.256 371.339 288.773 371.453C288.291 371.564 287.922 371.726 287.668 371.939C287.414 372.149 287.289 372.401 287.293 372.696ZM293.541 361.326H295.027V364.851H297.055V366.088H295.027V369.773H293.541V361.326ZM309.099 362.878H307.06V365.298H309.038V366.431H298.762V365.298H300.746V362.878H298.701V361.746H309.099V362.878ZM297.536 367.464H310.298V368.646H297.536V367.464ZM299.055 369.74H308.679V372.934H300.536V374.066H309.083V375.193H299.083V371.884H307.221V370.834H299.055V369.74ZM305.574 365.298V362.878H302.221V365.298H305.574ZM322.972 370.834H321.569V366.122H319.856V369.641H318.469V361.597H319.856V364.912H321.569V361.337H322.972V370.834ZM311.629 362.387H316.944V366.414H313.099V368.271C314.031 368.263 314.847 368.23 315.546 368.171C316.246 368.112 316.963 368.009 317.696 367.862L317.845 369.039C317.035 369.204 316.243 369.315 315.469 369.37C314.696 369.422 313.736 369.448 312.591 369.448H311.662V365.315H315.524V363.591H311.629V362.387ZM312.79 374.105C313.659 373.983 314.451 373.748 315.165 373.398C315.883 373.044 316.451 372.617 316.867 372.116C317.283 371.611 317.493 371.077 317.497 370.514V370.182H318.977V370.514C318.977 371.077 319.186 371.611 319.602 372.116C320.018 372.621 320.585 373.048 321.303 373.398C322.022 373.748 322.817 373.983 323.69 374.105L323.099 375.26C322.381 375.145 321.705 374.958 321.071 374.696C320.442 374.435 319.883 374.11 319.397 373.724C318.911 373.333 318.526 372.897 318.243 372.414C317.955 372.897 317.567 373.333 317.077 373.724C316.591 374.11 316.031 374.435 315.397 374.696C314.767 374.958 314.095 375.145 313.381 375.26L312.79 374.105ZM337.314 369.486H324.552V368.304H330.171V366.845H325.778V365.635H327.762V362.961H325.718V361.757H336.115V362.961H334.077V365.635H336.055V366.845H331.657V368.304H337.314V369.486ZM326.082 370.707H335.756V375.149H326.082V370.707ZM334.314 373.945V371.867H327.546V373.945H334.314ZM332.591 365.635V362.961H329.237V365.635H332.591Z" fill="#6C6C6C"/>
<path d="M394.8 223.48V238.08L392.4 238.06V226.02L389.7 227.36L388.8 225.32L392.4 223.48H394.8ZM401.091 238.16H398.451L404.111 225.48L397.571 225.5V223.4H406.551L406.751 225.48L401.091 238.16ZM412.218 238.18L421.498 223.34H423.898L414.558 238.18H412.218ZM408.798 227.14C408.798 224.88 410.538 223.1 412.738 223.1C414.918 223.1 416.658 224.88 416.658 227.14C416.658 229.4 414.918 231.18 412.738 231.18C410.538 231.18 408.798 229.4 408.798 227.14ZM411.018 227.14C411.018 228.16 411.778 228.96 412.738 228.96C413.698 228.96 414.458 228.16 414.458 227.14C414.458 226.12 413.698 225.32 412.738 225.32C411.778 225.32 411.018 226.12 411.018 227.14ZM419.278 234.26C419.278 232 420.998 230.22 423.218 230.22C425.398 230.22 427.118 232 427.118 234.26C427.118 236.52 425.398 238.3 423.218 238.3C420.998 238.3 419.278 236.52 419.278 234.26ZM421.478 234.26C421.478 235.28 422.238 236.08 423.218 236.08C424.178 236.08 424.918 235.28 424.918 234.26C424.918 233.24 424.178 232.44 423.218 232.44C422.238 232.44 421.478 233.24 421.478 234.26Z" fill="#4DA6FF" fill-opacity="0.6"/>
<path d="M380.425 366.541H382.298V361.597H383.713V374.635H382.298V367.762H380.425V371.635H374.989V362.901H380.425V366.541ZM379.033 370.459V364.077H376.387V370.459H379.033ZM385.133 361.326H386.558V375.326H385.133V361.326ZM399.641 371.591H398.155V361.337H399.641V371.591ZM388.105 368.436C388.819 368.171 389.44 367.786 389.967 367.282C390.493 366.777 390.897 366.197 391.177 365.541C391.457 364.886 391.597 364.204 391.597 363.497V362.116H393.116V363.497C393.112 364.179 393.248 364.831 393.525 365.453C393.801 366.072 394.199 366.619 394.718 367.094C395.241 367.569 395.856 367.928 396.563 368.171L395.801 369.354C395.002 369.063 394.309 368.634 393.724 368.066C393.138 367.495 392.687 366.825 392.37 366.055C392.057 366.88 391.602 367.6 391.005 368.215C390.412 368.831 389.711 369.293 388.9 369.602L388.105 368.436ZM390.481 370.63H391.972V373.823H400.05V375.039H390.481V370.63ZM413.215 375.354H411.729V367.569H408.845V366.354H411.729V361.326H413.215V375.354ZM401.375 371.448C402.075 371.116 402.701 370.624 403.254 369.972C403.81 369.317 404.245 368.576 404.558 367.751C404.871 366.926 405.029 366.098 405.033 365.265V363.956H401.933V362.735H409.641V363.956H406.536V365.265C406.536 366.05 406.69 366.836 407 367.624C407.309 368.413 407.74 369.118 408.292 369.74C408.845 370.363 409.471 370.831 410.171 371.144L409.287 372.326C408.491 371.939 407.79 371.366 407.182 370.608C406.574 369.845 406.114 368.978 405.801 368.006C405.48 369.037 405.013 369.959 404.397 370.773C403.782 371.587 403.075 372.201 402.276 372.613L401.375 371.448ZM420.093 364.89C420.093 365.74 420.243 366.573 420.541 367.387C420.839 368.197 421.259 368.919 421.801 369.552C422.342 370.182 422.963 370.654 423.662 370.967L422.767 372.16C421.979 371.766 421.29 371.195 420.701 370.448C420.112 369.696 419.662 368.834 419.353 367.862C419.036 368.89 418.58 369.803 417.983 370.602C417.39 371.401 416.697 372.006 415.906 372.414L414.966 371.221C415.674 370.882 416.302 370.379 416.85 369.713C417.399 369.046 417.825 368.291 418.127 367.448C418.432 366.604 418.587 365.751 418.591 364.89V362.492H420.093V364.89ZM422.127 365.978H425.248V361.326H426.718V375.354H425.248V367.182H422.127V365.978ZM440.149 375.354H438.657V361.326H440.149V375.354ZM429.325 362.492H430.806V366.088H434.585V362.492H436.049V372.006H429.325V362.492ZM434.585 370.779V367.265H430.806V370.779H434.585ZM449.17 363.315C449.17 364.055 449.406 364.773 449.878 365.47C450.353 366.166 450.983 366.761 451.767 367.254C452.555 367.748 453.393 368.074 454.281 368.232L453.607 369.47C452.859 369.308 452.143 369.042 451.458 368.674C450.776 368.306 450.17 367.855 449.64 367.32C449.11 366.786 448.695 366.197 448.397 365.552C448.095 366.193 447.677 366.781 447.143 367.315C446.612 367.849 446.007 368.3 445.325 368.669C444.644 369.037 443.929 369.304 443.182 369.47L442.519 368.232C443.403 368.066 444.235 367.738 445.016 367.249C445.797 366.755 446.423 366.16 446.894 365.464C447.366 364.768 447.603 364.052 447.607 363.315V362.26H449.17V363.315ZM442.06 372.254H454.872V373.486H442.06V372.254Z" fill="#6C6C6C"/>
</g>
<defs>
<filter id="filter0_dddd_317_34" x="0" y="2.09961" width="497" height="435.254" filterUnits="userSpaceOnUse" color-interpolation-filters="sRGB">
<feFlood flood-opacity="0" result="BackgroundImageFix"/>
<feColorMatrix in="SourceAlpha" type="matrix" values="0 0 0 0 0 0 0 0 0 0 0 0 0 0 0 0 0 0 127 0" result="hardAlpha"/>
<feOffset dy="3"/>
<feGaussianBlur stdDeviation="3"/>
<feColorMatrix type="matrix" values="0 0 0 0 0 0 0 0 0 0 0 0 0 0 0 0 0 0 0.05 0"/>
<feBlend mode="normal" in2="BackgroundImageFix" result="effect1_dropShadow_317_34"/>
<feColorMatrix in="SourceAlpha" type="matrix" values="0 0 0 0 0 0 0 0 0 0 0 0 0 0 0 0 0 0 127 0" result="hardAlpha"/>
<feOffset dx="-1" dy="11"/>
<feGaussianBlur stdDeviation="5.5"/>
<feColorMatrix type="matrix" values="0 0 0 0 0 0 0 0 0 0 0 0 0 0 0 0 0 0 0.04 0"/>
<feBlend mode="normal" in2="effect1_dropShadow_317_34" result="effect2_dropShadow_317_34"/>
<feColorMatrix in="SourceAlpha" type="matrix" values="0 0 0 0 0 0 0 0 0 0 0 0 0 0 0 0 0 0 127 0" result="hardAlpha"/>
<feOffset dx="-1" dy="25"/>
<feGaussianBlur stdDeviation="7.5"/>
<feColorMatrix type="matrix" values="0 0 0 0 0 0 0 0 0 0 0 0 0 0 0 0 0 0 0.03 0"/>
<feBlend mode="normal" in2="effect2_dropShadow_317_34" result="effect3_dropShadow_317_34"/>
<feColorMatrix in="SourceAlpha" type="matrix" values="0 0 0 0 0 0 0 0 0 0 0 0 0 0 0 0 0 0 127 0" result="hardAlpha"/>
<feOffset dx="-2" dy="44"/>
<feGaussianBlur stdDeviation="9"/>
<feColorMatrix type="matrix" values="0 0 0 0 0 0 0 0 0 0 0 0 0 0 0 0 0 0 0.01 0"/>
<feBlend mode="normal" in2="effect3_dropShadow_317_34" result="effect4_dropShadow_317_34"/>
<feBlend mode="normal" in="SourceGraphic" in2="effect4_dropShadow_317_34" result="shape"/>
</filter>
<linearGradient id="paint0_linear_317_34" x1="370" y1="301" x2="370" y2="350" gradientUnits="userSpaceOnUse">
<stop stop-color="#4DA6FF"/>
<stop offset="1" stop-color="#A1D0FF" stop-opacity="0.4"/>
</linearGradient>
<linearGradient id="paint1_linear_317_34" x1="265" y1="203" x2="265" y2="350" gradientUnits="userSpaceOnUse">
<stop stop-color="#4DA6FF"/>
<stop offset="1" stop-color="#A1D0FF" stop-opacity="0.4"/>
</linearGradient>
<linearGradient id="paint2_linear_317_34" x1="159" y1="75" x2="159" y2="350" gradientUnits="userSpaceOnUse">
<stop stop-color="#4DA6FF"/>
<stop offset="1" stop-color="#A1D0FF" stop-opacity="0.4"/>
</linearGradient>
<linearGradient id="paint3_linear_317_34" x1="54" y1="44.855" x2="54" y2="350" gradientUnits="userSpaceOnUse">
<stop stop-color="#4DA6FF"/>
<stop offset="1" stop-color="#A1D0FF" stop-opacity="0.4"/>
</linearGradient>
</defs>
</svg>
