<svg width="582" height="404" viewBox="0 0 582 404" fill="none" xmlns="http://www.w3.org/2000/svg">
<path d="M456.33 69C467.376 69 476.33 77.9543 476.33 89L476.33 108C476.33 119.046 467.376 128 456.33 128L0.00524644 128L0.00524902 69L456.33 69Z" fill="url(#paint0_linear_317_66)" fill-opacity="0.6"/>
<path d="M492.038 106.668C493.998 106.668 495.37 105.296 495.37 103.364C495.37 101.404 493.998 100.032 492.038 100.032C490.106 100.032 488.734 101.404 488.734 103.364C488.734 105.296 490.106 106.668 492.038 106.668ZM484.478 103.364C484.478 101.824 485.094 100.452 485.71 99.332L491.142 89.476L496.014 89.476L492.15 96.336L492.206 96.336C496.574 96.42 499.626 99.304 499.626 103.364C499.626 107.48 496.49 110.364 492.038 110.364C487.586 110.364 484.478 107.48 484.478 103.364ZM512.955 99.528C514.859 100.592 516.203 102.608 516.203 104.372C516.203 107.872 513.151 110.336 508.783 110.336C504.415 110.336 501.363 107.704 501.363 103.952L505.619 103.952C505.619 105.492 506.935 106.584 508.783 106.584C510.743 106.584 512.143 105.492 512.143 103.952C512.143 102.356 510.771 101.236 508.839 101.236L507.439 101.236L507.439 97.876L508.895 97.876C510.631 97.876 511.835 96.868 511.835 95.44C511.835 94.124 510.659 93.2 508.979 93.2C507.411 93.2 506.291 94.124 506.291 95.44L502.035 95.44C502.035 91.912 504.891 89.448 508.979 89.448C513.011 89.448 515.867 91.744 515.867 95.02C515.867 96.644 514.663 98.52 512.955 99.528ZM523.352 110.448L536.596 89.28L540.684 89.28L527.356 110.448L523.352 110.448ZM518.48 94.684C518.48 91.464 520.944 88.916 524.108 88.916C527.216 88.916 529.68 91.464 529.68 94.684C529.68 97.904 527.216 100.452 524.108 100.452C520.944 100.452 518.48 97.904 518.48 94.684ZM522.26 94.684C522.26 95.776 523.072 96.616 524.108 96.616C525.116 96.616 525.928 95.776 525.928 94.684C525.928 93.592 525.116 92.752 524.108 92.752C523.072 92.752 522.26 93.592 522.26 94.684ZM534.076 104.792C534.076 101.572 536.54 99.024 539.704 99.024C542.812 99.024 545.276 101.572 545.276 104.792C545.276 108.012 542.812 110.56 539.704 110.56C536.54 110.56 534.076 108.012 534.076 104.792ZM537.856 104.792C537.856 105.884 538.668 106.724 539.704 106.724C540.712 106.724 541.524 105.884 541.524 104.792C541.524 103.7 540.712 102.86 539.704 102.86C538.668 102.86 537.856 103.7 537.856 104.792Z" fill="#4DA6FF"/>
<path d="M129.429 92.4863L129.429 94.877L114.5 94.877L114.5 86.7207L117.476 86.7207L117.476 92.4863L129.429 92.4863ZM131.586 97.291L131.586 99.6816L127.133 99.6816L127.133 107.088L124.109 107.088L124.109 99.6816L119.633 99.6816L119.633 107.088L116.633 107.088L116.633 99.6816L112.133 99.6816L112.133 97.291L131.586 97.291ZM143.621 88.5723C143.621 91.6895 146.387 95.041 151.215 95.8613L149.903 98.3457C146.188 97.6074 143.422 95.5215 142.051 92.7676C140.633 95.498 137.867 97.5957 134.176 98.3457L132.887 95.8613C137.621 95.0176 140.41 91.666 140.434 88.5723L140.434 87.0254L143.621 87.0254L143.621 88.5723ZM151.918 102.002L151.918 104.463L132.395 104.463L132.395 102.002L151.918 102.002Z" fill="#4DA6FF"/>
<path d="M393 138C404.046 138 413 146.954 413 158L413 177C413 188.046 404.046 197 393 197L-2.00938e-06 197L0 138L393 138Z" fill="url(#paint1_linear_317_66)" fill-opacity="0.6"/>
<path d="M423.86 166.7L421.46 166.4L421.98 158.48L429.98 158.48L429.98 160.58L424.28 160.58L424.06 163.78C424.7 163.52 425.36 163.38 425.98 163.38C429.06 163.38 431.22 165.42 431.22 168.32C431.22 171.22 429.06 173.28 425.98 173.28C423.56 173.28 421.48 171.66 420.94 169.38L423.28 168.82C423.56 170.12 424.68 171.02 425.98 171.02C427.66 171.02 428.82 169.9 428.82 168.32C428.82 166.74 427.66 165.62 425.98 165.62C425.32 165.62 424.42 166.06 423.86 166.7ZM437.828 171.12C439.468 171.12 440.608 169.96 440.608 168.32C440.608 166.66 439.468 165.5 437.828 165.5C436.228 165.5 435.108 166.66 435.108 168.32C435.108 169.96 436.228 171.12 437.828 171.12ZM432.708 168.32C432.708 167.26 433.088 166.3 433.528 165.52L437.488 158.42L440.248 158.42L437.388 163.46C437.548 163.44 437.728 163.4 437.908 163.4C440.908 163.44 443.008 165.46 443.008 168.32C443.008 171.2 440.868 173.22 437.848 173.22C434.808 173.22 432.708 171.2 432.708 168.32ZM448.475 173.18L457.755 158.34L460.155 158.34L450.815 173.18L448.475 173.18ZM445.055 162.14C445.055 159.88 446.795 158.1 448.995 158.1C451.175 158.1 452.915 159.88 452.915 162.14C452.915 164.4 451.175 166.18 448.995 166.18C446.795 166.18 445.055 164.4 445.055 162.14ZM447.275 162.14C447.275 163.16 448.035 163.96 448.995 163.96C449.955 163.96 450.715 163.16 450.715 162.14C450.715 161.12 449.955 160.32 448.995 160.32C448.035 160.32 447.275 161.12 447.275 162.14ZM455.535 169.26C455.535 167 457.255 165.22 459.475 165.22C461.655 165.22 463.375 167 463.375 169.26C463.375 171.52 461.655 173.3 459.475 173.3C457.255 173.3 455.535 171.52 455.535 169.26ZM457.735 169.26C457.735 170.28 458.495 171.08 459.475 171.08C460.435 171.08 461.175 170.28 461.175 169.26C461.175 168.24 460.435 167.44 459.475 167.44C458.495 167.44 457.735 168.24 457.735 169.26Z" fill="#4DA6FF" fill-opacity="0.6"/>
<path d="M111.925 165.685H120.693V167.166H117.174V177H115.455V167.166H111.925V165.685ZM126.26 174.89H126.381L129.53 165.685H131.387L127.321 177H125.326L121.26 165.685H123.122L126.26 174.89Z" fill="#6C6C6C"/>
<path d="M393 207C404.046 207 413 215.954 413 227L413 246C413 257.046 404.046 266 393 266L-1.9951e-06 266L0 207L393 207Z" fill="url(#paint2_linear_317_66)" fill-opacity="0.6"/>
<path d="M423.86 235.7L421.46 235.4L421.98 227.48L429.98 227.48L429.98 229.58L424.28 229.58L424.06 232.78C424.7 232.52 425.36 232.38 425.98 232.38C429.06 232.38 431.22 234.42 431.22 237.32C431.22 240.22 429.06 242.28 425.98 242.28C423.56 242.28 421.48 240.66 420.94 238.38L423.28 237.82C423.56 239.12 424.68 240.02 425.98 240.02C427.66 240.02 428.82 238.9 428.82 237.32C428.82 235.74 427.66 234.62 425.98 234.62C425.32 234.62 424.42 235.06 423.86 235.7ZM437.828 240.12C439.468 240.12 440.608 238.96 440.608 237.32C440.608 235.66 439.468 234.5 437.828 234.5C436.228 234.5 435.108 235.66 435.108 237.32C435.108 238.96 436.228 240.12 437.828 240.12ZM432.708 237.32C432.708 236.26 433.088 235.3 433.528 234.52L437.488 227.42L440.248 227.42L437.388 232.46C437.548 232.44 437.728 232.4 437.908 232.4C440.908 232.44 443.008 234.46 443.008 237.32C443.008 240.2 440.868 242.22 437.848 242.22C434.808 242.22 432.708 240.2 432.708 237.32ZM448.475 242.18L457.755 227.34L460.155 227.34L450.815 242.18L448.475 242.18ZM445.055 231.14C445.055 228.88 446.795 227.1 448.995 227.1C451.175 227.1 452.915 228.88 452.915 231.14C452.915 233.4 451.175 235.18 448.995 235.18C446.795 235.18 445.055 233.4 445.055 231.14ZM447.275 231.14C447.275 232.16 448.035 232.96 448.995 232.96C449.955 232.96 450.715 232.16 450.715 231.14C450.715 230.12 449.955 229.32 448.995 229.32C448.035 229.32 447.275 230.12 447.275 231.14ZM455.535 238.26C455.535 236 457.255 234.22 459.475 234.22C461.655 234.22 463.375 236 463.375 238.26C463.375 240.52 461.655 242.3 459.475 242.3C457.255 242.3 455.535 240.52 455.535 238.26ZM457.735 238.26C457.735 239.28 458.495 240.08 459.475 240.08C460.435 240.08 461.175 239.28 461.175 238.26C461.175 237.24 460.435 236.44 459.475 236.44C458.495 236.44 457.735 237.24 457.735 238.26Z" fill="#4DA6FF" fill-opacity="0.6"/>
<path d="M116.721 231.696C116.717 232.274 116.849 232.831 117.118 233.365C117.387 233.895 117.778 234.366 118.29 234.779C118.805 235.188 119.413 235.499 120.113 235.713L119.406 236.867C118.61 236.617 117.919 236.243 117.334 235.746C116.752 235.245 116.303 234.657 115.986 233.983C115.676 234.727 115.22 235.376 114.616 235.928C114.012 236.477 113.293 236.886 112.461 237.155L111.704 235.978C112.419 235.75 113.041 235.42 113.571 234.989C114.102 234.558 114.509 234.061 114.792 233.497C115.08 232.934 115.225 232.341 115.229 231.718V231.42H112.157V230.21H119.732V231.42H116.721V231.696ZM113.875 237.646H115.35V239.215H121.367V237.646H122.853V243.149H113.875V237.646ZM121.367 241.945V240.376H115.35V241.945H121.367ZM121.367 229.326H122.853V232.481H124.881V233.707H122.853V237.006H121.367V229.326ZM130.51 233.459C130.51 234.228 130.667 234.994 130.98 235.757C131.297 236.516 131.735 237.193 132.295 237.79C132.859 238.383 133.494 238.831 134.201 239.133L133.389 240.304C132.571 239.943 131.847 239.4 131.218 238.674C130.591 237.945 130.113 237.11 129.781 236.171C129.564 236.834 129.277 237.459 128.919 238.044C128.566 238.626 128.155 239.142 127.687 239.591C127.223 240.037 126.724 240.39 126.19 240.652L125.323 239.481C126.011 239.16 126.636 238.678 127.196 238.033C127.759 237.389 128.201 236.663 128.522 235.856C128.842 235.05 129.004 234.25 129.008 233.459V231.961H125.814V230.735H133.704V231.961H130.51V233.459ZM135.466 229.326H136.958V243.326H135.466V229.326Z" fill="#6C6C6C"/>
<path d="M362.004 276C373.05 276 382.004 284.954 382.004 296L382.004 315C382.004 326.046 373.05 335 362.004 335L0.00390439 335L0.00390625 276L362.004 276Z" fill="url(#paint3_linear_317_66)" fill-opacity="0.6"/>
<path d="M398.764 296.48L398.764 305.38L400.484 305.38L400.484 307.44L398.764 307.44L398.764 311.08L396.384 311.08L396.384 307.44L390.144 307.44L389.944 305.38L396.484 296.48L398.764 296.48ZM392.744 305.38L396.384 305.38L396.384 300.42L392.744 305.38ZM407.106 298.42C405.486 298.42 404.346 299.56 404.346 301.22C404.346 302.86 405.486 304.04 407.106 304.04C408.706 304.04 409.846 302.86 409.846 301.22C409.846 299.56 408.706 298.42 407.106 298.42ZM401.946 301.22C401.946 298.34 404.066 296.32 407.086 296.32C410.126 296.32 412.246 298.34 412.246 301.22C412.246 302.28 411.846 303.24 411.406 304.02L407.446 311.1L404.686 311.1L407.566 306.08C407.386 306.1 407.206 306.12 407.026 306.12C404.026 306.1 401.946 304.08 401.946 301.22ZM417.714 311.18L426.994 296.34L429.394 296.34L420.054 311.18L417.714 311.18ZM414.294 300.14C414.294 297.88 416.034 296.1 418.234 296.1C420.414 296.1 422.154 297.88 422.154 300.14C422.154 302.4 420.414 304.18 418.234 304.18C416.034 304.18 414.294 302.4 414.294 300.14ZM416.514 300.14C416.514 301.16 417.274 301.96 418.234 301.96C419.194 301.96 419.954 301.16 419.954 300.14C419.954 299.12 419.194 298.32 418.234 298.32C417.274 298.32 416.514 299.12 416.514 300.14ZM424.774 307.26C424.774 305 426.494 303.22 428.714 303.22C430.894 303.22 432.614 305 432.614 307.26C432.614 309.52 430.894 311.3 428.714 311.3C426.494 311.3 424.774 309.52 424.774 307.26ZM426.974 307.26C426.974 308.28 427.734 309.08 428.714 309.08C429.674 309.08 430.414 308.28 430.414 307.26C430.414 306.24 429.674 305.44 428.714 305.44C427.734 305.44 426.974 306.24 426.974 307.26Z" fill="#4DA6FF" fill-opacity="0.6"/>
<path d="M123.118 312.354H121.626V298.326H123.118V312.354ZM112.002 304.287C112.002 303.304 112.155 302.442 112.461 301.702C112.77 300.958 113.199 300.385 113.748 299.983C114.297 299.578 114.921 299.376 115.621 299.376C116.317 299.376 116.937 299.578 117.483 299.983C118.031 300.389 118.461 300.963 118.77 301.707C119.079 302.448 119.234 303.308 119.234 304.287C119.234 305.274 119.079 306.14 118.77 306.884C118.461 307.628 118.031 308.203 117.483 308.608C116.937 309.009 116.317 309.21 115.621 309.21C114.921 309.21 114.297 309.009 113.748 308.608C113.199 308.203 112.77 307.628 112.461 306.884C112.155 306.14 112.002 305.274 112.002 304.287ZM113.433 304.287C113.433 305.017 113.525 305.652 113.709 306.193C113.893 306.735 114.149 307.151 114.477 307.442C114.809 307.733 115.19 307.878 115.621 307.878C116.052 307.878 116.431 307.733 116.759 307.442C117.087 307.151 117.341 306.735 117.521 306.193C117.705 305.652 117.798 305.017 117.798 304.287C117.798 303.562 117.705 302.93 117.521 302.392C117.341 301.851 117.087 301.435 116.759 301.144C116.431 300.853 116.052 300.705 115.621 300.702C115.19 300.705 114.809 300.855 114.477 301.149C114.149 301.44 113.893 301.856 113.709 302.398C113.525 302.936 113.433 303.565 113.433 304.287ZM130.935 303.541H132.808V298.597H134.223V311.635H132.808V304.762H130.935V308.635H125.499V299.901H130.935V303.541ZM129.543 307.459V301.077H126.897V307.459H129.543ZM135.643 298.326H137.068V312.326H135.643V298.326ZM142.504 298.807C143.201 298.807 143.827 298.941 144.383 299.21C144.939 299.479 145.375 299.851 145.692 300.326C146.009 300.801 146.169 301.341 146.173 301.945C146.169 302.545 146.009 303.083 145.692 303.558C145.375 304.029 144.939 304.398 144.383 304.663C143.827 304.928 143.201 305.061 142.504 305.061C141.801 305.061 141.169 304.928 140.609 304.663C140.05 304.398 139.611 304.029 139.294 303.558C138.978 303.087 138.819 302.549 138.819 301.945C138.819 301.341 138.978 300.801 139.294 300.326C139.611 299.851 140.05 299.479 140.609 299.21C141.169 298.941 141.801 298.807 142.504 298.807ZM140.267 301.945C140.263 302.32 140.357 302.654 140.549 302.945C140.74 303.232 141.007 303.457 141.35 303.619C141.692 303.777 142.077 303.856 142.504 303.856C142.928 303.856 143.309 303.777 143.648 303.619C143.987 303.457 144.252 303.232 144.444 302.945C144.639 302.654 144.736 302.32 144.736 301.945C144.736 301.569 144.639 301.238 144.444 300.95C144.252 300.659 143.987 300.435 143.648 300.276C143.309 300.118 142.928 300.039 142.504 300.039C142.077 300.039 141.692 300.118 141.35 300.276C141.007 300.435 140.74 300.659 140.549 300.95C140.357 301.238 140.263 301.569 140.267 301.945ZM140.941 306.099H150.151V309.619H142.427V310.961H150.609V312.149H140.985V308.514H148.676V307.276H140.941V306.099ZM148.665 298.326H150.151V305.453H148.665V298.326ZM163.427 299.978V300.094C163.42 300.731 163.394 301.328 163.35 301.884C163.306 302.436 163.21 303.052 163.063 303.729L161.604 303.602C161.737 302.987 161.825 302.425 161.869 301.917C161.917 301.405 161.943 300.895 161.947 300.387H156.361V299.171H163.427V299.978ZM155.516 304.939C156.58 304.939 157.536 304.93 158.383 304.912V302.238H159.853V304.873C161.562 304.81 163.046 304.7 164.306 304.541L164.394 305.602C163.076 305.82 161.682 305.969 160.212 306.05C158.742 306.127 157.223 306.166 155.654 306.166L155.516 304.939ZM157.345 309.707C157.345 309.184 157.534 308.733 157.914 308.354C158.297 307.971 158.844 307.678 159.555 307.475C160.269 307.273 161.113 307.171 162.085 307.171C163.057 307.171 163.899 307.273 164.61 307.475C165.321 307.678 165.866 307.971 166.245 308.354C166.628 308.733 166.82 309.184 166.82 309.707C166.82 310.249 166.628 310.713 166.245 311.099C165.866 311.486 165.321 311.781 164.61 311.983C163.899 312.186 163.057 312.287 162.085 312.287C161.109 312.287 160.265 312.186 159.555 311.983C158.844 311.781 158.297 311.486 157.914 311.099C157.534 310.713 157.345 310.249 157.345 309.707ZM158.847 309.707C158.844 310.013 158.969 310.271 159.223 310.481C159.481 310.691 159.853 310.849 160.339 310.956C160.825 311.063 161.407 311.116 162.085 311.116C163.102 311.116 163.892 310.996 164.455 310.757C165.019 310.514 165.302 310.164 165.306 309.707C165.306 309.42 165.177 309.173 164.919 308.967C164.661 308.761 164.291 308.602 163.809 308.492C163.326 308.381 162.752 308.326 162.085 308.326C161.411 308.326 160.831 308.381 160.345 308.492C159.858 308.602 159.486 308.761 159.229 308.967C158.971 309.173 158.844 309.42 158.847 309.707ZM165.195 298.326H166.704V302.028H168.637V303.271H166.704V307H165.195V298.326ZM180.466 301.044C180.462 301.847 180.451 302.536 180.433 303.11C180.414 303.681 180.367 304.348 180.289 305.11C180.216 305.873 180.096 306.698 179.93 307.586L178.438 307.42C178.6 306.602 178.72 305.831 178.798 305.105C178.879 304.376 178.928 303.727 178.947 303.16C178.969 302.593 178.982 301.928 178.985 301.166V301.044V300.878H170.483V299.674H180.466V301.044ZM169.14 309.21H173.991V304.271H175.46V309.21H181.902V310.436H169.14V309.21Z" fill="#6C6C6C"/>
<path d="M302.965 345C314.01 345 322.965 353.954 322.965 365L322.965 384C322.965 395.046 314.011 404 302.965 404L0.0034164 404L0.00341797 345L302.965 345Z" fill="url(#paint4_linear_317_66)" fill-opacity="0.6"/>
<path d="M328.545 377.98C331.485 375.16 335.325 372.6 335.325 370.22C335.325 368.66 334.345 367.56 332.945 367.56C331.845 367.56 330.745 368.34 330.245 369.46L328.165 368.54C329.005 366.66 330.985 365.34 332.945 365.34C335.765 365.34 337.725 367.36 337.725 370.22C337.725 373.28 334.645 375.78 332.005 377.98L337.945 377.98L337.945 380.08L328.745 380.08L328.545 377.98ZM344.485 378.32C346.045 378.32 347.145 377.32 347.145 375.9C347.145 374.44 346.045 373.4 344.485 373.4C342.925 373.4 341.825 374.44 341.825 375.9C341.825 377.32 342.925 378.32 344.485 378.32ZM339.425 375.96C339.425 374.68 340.425 373.2 341.845 372.4C340.665 371.6 339.825 370.3 339.825 369.24C339.825 366.9 341.765 365.24 344.485 365.24C347.225 365.24 349.145 366.9 349.145 369.24C349.145 370.32 348.305 371.62 347.125 372.4C348.545 373.2 349.545 374.68 349.545 375.96C349.545 378.54 347.445 380.34 344.485 380.34C341.505 380.34 339.425 378.54 339.425 375.96ZM342.225 369.28C342.225 370.5 343.165 371.36 344.485 371.36C345.805 371.36 346.745 370.5 346.745 369.28C346.745 368.08 345.805 367.26 344.485 367.26C343.165 367.26 342.225 368.08 342.225 369.28ZM354.977 380.18L364.257 365.34L366.657 365.34L357.317 380.18L354.977 380.18ZM351.557 369.14C351.557 366.88 353.297 365.1 355.497 365.1C357.677 365.1 359.417 366.88 359.417 369.14C359.417 371.4 357.677 373.18 355.497 373.18C353.297 373.18 351.557 371.4 351.557 369.14ZM353.777 369.14C353.777 370.16 354.537 370.96 355.497 370.96C356.457 370.96 357.217 370.16 357.217 369.14C357.217 368.12 356.457 367.32 355.497 367.32C354.537 367.32 353.777 368.12 353.777 369.14ZM362.037 376.26C362.037 374 363.757 372.22 365.977 372.22C368.157 372.22 369.877 374 369.877 376.26C369.877 378.52 368.157 380.3 365.977 380.3C363.757 380.3 362.037 378.52 362.037 376.26ZM364.237 376.26C364.237 377.28 364.997 378.08 365.977 378.08C366.937 378.08 367.677 377.28 367.677 376.26C367.677 375.24 366.937 374.44 365.977 374.44C364.997 374.44 364.237 375.24 364.237 376.26Z" fill="#4DA6FF" fill-opacity="0.6"/>
<path d="M113.4 371.961H116.063V368.63H117.438V377.884H111.991V368.63H113.4V371.961ZM116.063 376.674V373.149H113.4V376.674H116.063ZM119.002 367.597H120.411V372.807H122.135V367.326H123.56V381.326H122.135V374.033H120.411V380.635H119.002V367.597ZM136.714 381.354H135.234V373.066H131.052V371.851H135.234V367.326H136.714V381.354ZM125.781 368.873H127.273V376.74C128.355 376.729 129.374 376.683 130.328 376.602C131.282 376.517 132.241 376.379 133.206 376.188L133.377 377.409C132.32 377.626 131.276 377.777 130.245 377.862C129.217 377.947 128.099 377.989 126.891 377.989H125.781V368.873ZM146.333 368.978V369.094C146.326 369.731 146.3 370.328 146.256 370.884C146.212 371.436 146.116 372.052 145.968 372.729L144.51 372.602C144.643 371.987 144.731 371.425 144.775 370.917C144.823 370.405 144.849 369.895 144.852 369.387H139.267V368.171H146.333V368.978ZM138.422 373.939C139.486 373.939 140.442 373.93 141.289 373.912V371.238H142.759V373.873C144.468 373.81 145.952 373.7 147.212 373.541L147.3 374.602C145.981 374.82 144.587 374.969 143.118 375.05C141.648 375.127 140.129 375.166 138.56 375.166L138.422 373.939ZM140.25 378.707C140.25 378.184 140.44 377.733 140.819 377.354C141.202 376.971 141.749 376.678 142.46 376.475C143.175 376.273 144.018 376.171 144.991 376.171C145.963 376.171 146.805 376.273 147.515 376.475C148.226 376.678 148.771 376.971 149.151 377.354C149.534 377.733 149.725 378.184 149.725 378.707C149.725 379.249 149.534 379.713 149.151 380.099C148.771 380.486 148.226 380.781 147.515 380.983C146.805 381.186 145.963 381.287 144.991 381.287C144.015 381.287 143.171 381.186 142.46 380.983C141.749 380.781 141.202 380.486 140.819 380.099C140.44 379.713 140.25 379.249 140.25 378.707ZM141.753 378.707C141.749 379.013 141.875 379.271 142.129 379.481C142.387 379.691 142.759 379.849 143.245 379.956C143.731 380.063 144.313 380.116 144.991 380.116C146.007 380.116 146.797 379.996 147.361 379.757C147.924 379.514 148.208 379.164 148.212 378.707C148.212 378.42 148.083 378.173 147.825 377.967C147.567 377.761 147.197 377.602 146.714 377.492C146.232 377.381 145.657 377.326 144.991 377.326C144.317 377.326 143.736 377.381 143.25 377.492C142.764 377.602 142.392 377.761 142.134 377.967C141.876 378.173 141.749 378.42 141.753 378.707ZM148.101 367.326H149.609V371.028H151.543V372.271H149.609V376H148.101V367.326ZM163.372 370.044C163.368 370.847 163.357 371.536 163.338 372.11C163.32 372.681 163.272 373.348 163.195 374.11C163.121 374.873 163.001 375.698 162.836 376.586L161.344 376.42C161.506 375.602 161.626 374.831 161.703 374.105C161.784 373.376 161.834 372.727 161.852 372.16C161.874 371.593 161.887 370.928 161.891 370.166V370.044V369.878H153.388V368.674H163.372V370.044ZM152.046 378.21H156.896V373.271H158.366V378.21H164.808V379.436H152.046V378.21Z" fill="#6C6C6C"/>
<path d="M510.697 -8.74227e-07C521.743 -3.91404e-07 530.697 8.95431 530.697 20L530.697 39C530.697 50.0457 521.743 59 510.697 59L0.000790878 59L0.000793457 -2.31975e-05L510.697 -8.74227e-07Z" fill="url(#paint5_linear_317_66)" fill-opacity="0.6"/>
<path d="M542.497 35.16L539.857 35.16L545.517 22.48L538.977 22.5L538.977 20.4L547.957 20.4L548.157 22.48L542.497 35.16ZM554.704 33.32C556.264 33.32 557.364 32.32 557.364 30.9C557.364 29.44 556.264 28.4 554.704 28.4C553.144 28.4 552.044 29.44 552.044 30.9C552.044 32.32 553.144 33.32 554.704 33.32ZM549.644 30.96C549.644 29.68 550.644 28.2 552.064 27.4C550.884 26.6 550.044 25.3 550.044 24.24C550.044 21.9 551.984 20.24 554.704 20.24C557.444 20.24 559.364 21.9 559.364 24.24C559.364 25.32 558.524 26.62 557.344 27.4C558.764 28.2 559.764 29.68 559.764 30.96C559.764 33.54 557.664 35.34 554.704 35.34C551.724 35.34 549.644 33.54 549.644 30.96ZM552.444 24.28C552.444 25.5 553.384 26.36 554.704 26.36C556.024 26.36 556.964 25.5 556.964 24.28C556.964 23.08 556.024 22.26 554.704 22.26C553.384 22.26 552.444 23.08 552.444 24.28ZM565.196 35.18L574.476 20.34L576.876 20.34L567.536 35.18L565.196 35.18ZM561.776 24.14C561.776 21.88 563.516 20.1 565.716 20.1C567.896 20.1 569.636 21.88 569.636 24.14C569.636 26.4 567.896 28.18 565.716 28.18C563.516 28.18 561.776 26.4 561.776 24.14ZM563.996 24.14C563.996 25.16 564.756 25.96 565.716 25.96C566.676 25.96 567.436 25.16 567.436 24.14C567.436 23.12 566.676 22.32 565.716 22.32C564.756 22.32 563.996 23.12 563.996 24.14ZM572.256 31.26C572.256 29 573.976 27.22 576.196 27.22C578.376 27.22 580.096 29 580.096 31.26C580.096 33.52 578.376 35.3 576.196 35.3C573.976 35.3 572.256 33.52 572.256 31.26ZM574.456 31.26C574.456 32.28 575.216 33.08 576.196 33.08C577.156 33.08 577.896 32.28 577.896 31.26C577.896 30.24 577.156 29.44 576.196 29.44C575.216 29.44 574.456 30.24 574.456 31.26Z" fill="#4DA6FF" fill-opacity="0.6"/>
<path d="M122.928 24.442C122.924 25.0534 122.915 25.5727 122.9 26C122.889 26.4236 122.856 26.9098 122.801 27.4586C122.746 28.0037 122.659 28.5856 122.541 29.2044H124.552V30.4144H118.873V36.3481H117.386V30.4144H111.79V29.2044H121.033C121.162 28.5856 121.256 28.0018 121.315 27.453C121.377 26.9042 121.416 26.4144 121.431 25.9834C121.445 25.5488 121.453 25.035 121.453 24.442V24.4144H113.342V23.2099H122.928V24.442ZM137.337 36.326H135.911V29.0331H134.187V35.6354H132.779V22.5967H134.187V27.8066H135.911V22.326H137.337V36.326ZM125.767 23.9006H131.204V32.6354H125.767V23.9006ZM129.812 31.4586V25.0773H127.165V31.4586H129.812ZM143.684 26.4586C143.681 27.1915 143.83 27.9337 144.132 28.6851C144.434 29.4328 144.856 30.1142 145.397 30.7293C145.942 31.3407 146.561 31.8085 147.253 32.1326L146.414 33.3039C145.64 32.9319 144.951 32.3775 144.347 31.6409C143.747 30.9042 143.285 30.07 142.961 29.1381C142.747 29.8048 142.463 30.4328 142.11 31.0221C141.756 31.6114 141.349 32.1326 140.889 32.5856C140.432 33.035 139.942 33.3904 139.419 33.6519L138.541 32.4807C139.233 32.1492 139.858 31.6593 140.414 31.011C140.974 30.3628 141.412 29.6372 141.729 28.8343C142.049 28.0313 142.211 27.2394 142.215 26.4586V24.9613H139.06V23.7348H146.723V24.9613H143.684V26.4586ZM148.226 22.326H149.712V27.8785H151.955V29.1326H149.712V36.326H148.226V22.326ZM165.093 29.2541H152.314V28.0663H165.093V29.2541ZM153.833 30.3536H163.458V33.7459H155.314V35H163.861V36.1768H153.861V32.6519H161.999V31.4972H153.833V30.3536ZM153.977 22.7403H163.436V23.9282H155.458V25.8508H163.568V27.0442H153.977V22.7403ZM170.38 23.3204C171.11 23.3204 171.763 23.4622 172.342 23.7459C172.92 24.0258 173.371 24.4199 173.695 24.9282C174.023 25.4328 174.189 26.0092 174.192 26.6575C174.189 27.3057 174.023 27.884 173.695 28.3923C173.371 28.8969 172.92 29.291 172.342 29.5746C171.763 29.8545 171.11 29.9945 170.38 29.9945C169.651 29.9945 168.995 29.8545 168.413 29.5746C167.835 29.291 167.382 28.8969 167.054 28.3923C166.726 27.884 166.564 27.3057 166.568 26.6575C166.564 26.0129 166.726 25.4383 167.054 24.9337C167.382 24.4254 167.835 24.0295 168.413 23.7459C168.995 23.4622 169.651 23.3204 170.38 23.3204ZM166.375 32.105C167.981 32.105 169.504 32.0737 170.944 32.011C172.388 31.9484 173.752 31.825 175.038 31.6409L175.154 32.7238C174.174 32.9079 173.157 33.046 172.104 33.1381C171.054 33.2302 170.069 33.2873 169.148 33.3094C168.231 33.3315 167.207 33.3425 166.076 33.3425L165.894 32.105H166.375ZM168.032 26.6575C168.028 27.0626 168.126 27.4217 168.325 27.7348C168.528 28.0442 168.807 28.2836 169.165 28.453C169.526 28.6225 169.931 28.7072 170.38 28.7072C170.83 28.7072 171.233 28.6225 171.59 28.453C171.951 28.2836 172.233 28.0442 172.435 27.7348C172.642 27.4217 172.745 27.0626 172.745 26.6575C172.745 26.2523 172.642 25.895 172.435 25.5856C172.233 25.2762 171.951 25.0368 171.59 24.8674C171.233 24.6943 170.83 24.6077 170.38 24.6077C169.931 24.6077 169.526 24.6943 169.165 24.8674C168.807 25.0368 168.528 25.2762 168.325 25.5856C168.126 25.895 168.028 26.2523 168.032 26.6575ZM175.916 22.326H177.397V36.3536H175.916V22.326ZM195.679 31.989H190.016V36.3481H188.557V31.989H182.917V30.7624H195.679V31.989ZM183.662 28.6133C184.535 28.5028 185.338 28.2781 186.071 27.9392C186.808 27.6004 187.397 27.1915 187.839 26.7127C188.285 26.2302 188.522 25.7311 188.552 25.2155H184.121V24.0221H188.557V22.326H190.016V24.0221H194.464V25.2155H190.038C190.064 25.7311 190.296 26.2302 190.734 26.7127C191.173 27.1915 191.758 27.6004 192.491 27.9392C193.228 28.2781 194.033 28.5028 194.906 28.6133L194.364 29.7956C193.62 29.6924 192.918 29.512 192.259 29.2541C191.6 28.9963 191.016 28.6759 190.508 28.2928C189.999 27.9061 189.596 27.4751 189.298 27C188.996 27.4788 188.589 27.9098 188.077 28.2928C187.569 28.6759 186.983 28.9963 186.32 29.2541C185.661 29.512 184.955 29.6924 184.204 29.7956L183.662 28.6133ZM201.331 25.6519C201.331 26.2413 201.471 26.8048 201.751 27.3425C202.031 27.8803 202.432 28.3554 202.955 28.768C203.478 29.1768 204.091 29.4917 204.795 29.7127L204.071 30.884C203.276 30.6335 202.581 30.256 201.988 29.7514C201.395 29.2431 200.939 28.6446 200.618 27.9558C200.309 28.6961 199.856 29.3407 199.259 29.8895C198.666 30.4346 197.962 30.8435 197.148 31.116L196.419 29.9558C197.119 29.7311 197.729 29.4015 198.248 28.9669C198.767 28.5285 199.165 28.0239 199.441 27.453C199.718 26.8821 199.856 26.2818 199.856 25.6519V25.3204H196.811V24.1271H199.856V22.4144H201.353V24.1271H204.369V25.3204H201.331V25.6519ZM199.005 31.8453H200.486V34.8232H208.463V36.0387H199.005V31.8453ZM203.894 26.5746H206.613V22.337H208.093V32.768H206.613V27.7845H203.894V26.5746Z" fill="#6C6C6C"/>
<defs>
<linearGradient id="paint0_linear_317_66" x1="459.968" y1="69" x2="0.00525074" y2="69" gradientUnits="userSpaceOnUse">
<stop stop-color="#4DA6FF"/>
<stop offset="1" stop-color="#A1D0FF" stop-opacity="0.4"/>
</linearGradient>
<linearGradient id="paint1_linear_317_66" x1="398.813" y1="138" x2="1.48569e-06" y2="138" gradientUnits="userSpaceOnUse">
<stop stop-color="#4DA6FF"/>
<stop offset="1" stop-color="#A1D0FF" stop-opacity="0.4"/>
</linearGradient>
<linearGradient id="paint2_linear_317_66" x1="398.813" y1="207" x2="1.48569e-06" y2="207" gradientUnits="userSpaceOnUse">
<stop stop-color="#4DA6FF"/>
<stop offset="1" stop-color="#A1D0FF" stop-opacity="0.4"/>
</linearGradient>
<linearGradient id="paint3_linear_317_66" x1="368.882" y1="276" x2="0.00390762" y2="276" gradientUnits="userSpaceOnUse">
<stop stop-color="#4DA6FF"/>
<stop offset="1" stop-color="#A1D0FF" stop-opacity="0.4"/>
</linearGradient>
<linearGradient id="paint4_linear_317_66" x1="311.871" y1="345" x2="0.00341913" y2="345" gradientUnits="userSpaceOnUse">
<stop stop-color="#4DA6FF"/>
<stop offset="1" stop-color="#A1D0FF" stop-opacity="0.4"/>
</linearGradient>
<linearGradient id="paint5_linear_317_66" x1="512.467" y1="-7.9686e-07" x2="0.000795366" y2="-2.31975e-05" gradientUnits="userSpaceOnUse">
<stop stop-color="#4DA6FF"/>
<stop offset="1" stop-color="#A1D0FF" stop-opacity="0.4"/>
</linearGradient>
</defs>
</svg>
