<svg width="655" height="255" viewBox="0 0 655 255" fill="none" xmlns="http://www.w3.org/2000/svg">
<rect x="0.5" y="0.5" width="350" height="120.757" rx="19.5" fill="#4DA6FF" fill-opacity="0.15" stroke="white"/>
<path d="M45.6283 72.7811H53.5883V74.0011H47.1283V76.3411H53.2883V77.5411H47.1283V80.0011C50.5283 80.0011 52.4683 79.9211 54.7683 79.5011L54.9283 80.7211C52.5283 81.1411 50.5283 81.2211 46.9483 81.2211H45.6283V72.7811ZM56.8683 71.5811H58.3683V76.2811H60.9683V77.5411H58.3683V82.1811H56.8683V71.5811ZM47.0283 83.0811H58.3683V89.0811H56.8683V84.3011H47.0283V83.0811ZM75.0288 71.5811H76.5288V81.9011H75.0288V80.9211H71.5088V79.9211H75.0288V71.5811ZM62.1888 78.2211C65.5688 78.2211 69.8488 78.1811 73.6088 77.7611L73.7088 78.7411C72.0088 78.9811 70.2288 79.1411 68.4888 79.2211V81.9611H67.0088V79.2811C65.3688 79.3411 63.7888 79.3411 62.3888 79.3411L62.1888 78.2211ZM64.8688 82.5611H76.5288V86.1211H66.3888V87.7611H77.1488V88.8811H64.9088V85.1211H75.0488V83.6411H64.8688V82.5611ZM67.8488 71.9211C70.4488 71.9211 72.1488 72.9211 72.1488 74.5611C72.1488 76.1811 70.4488 77.1611 67.8488 77.1611C65.2488 77.1611 63.5488 76.1811 63.5488 74.5611C63.5488 72.9211 65.2488 71.9211 67.8488 71.9211ZM67.8488 72.9811C66.1088 72.9811 64.9488 73.6011 64.9488 74.5611C64.9488 75.5211 66.1088 76.1411 67.8488 76.1411C69.6088 76.1411 70.7488 75.5211 70.7488 74.5611C70.7488 73.6011 69.6088 72.9811 67.8488 72.9811ZM91.8092 71.6011H93.3092V77.3811H95.9292V78.6411H93.3092V84.7211H91.8092V71.6011ZM79.8092 73.7411H84.2292V71.6011H85.7292V73.7411H90.1492V74.9611H79.8092V73.7411ZM84.9692 75.9611C87.4492 75.9611 89.1492 77.2411 89.1492 79.2211C89.1492 81.1811 87.4492 82.4611 84.9692 82.4611C82.4892 82.4611 80.8092 81.1811 80.8092 79.2211C80.8092 77.2411 82.4892 75.9611 84.9692 75.9611ZM84.9692 77.1411C83.3292 77.1411 82.2292 77.9611 82.2292 79.2211C82.2292 80.4611 83.3292 81.2811 84.9692 81.2811C86.6092 81.2811 87.7092 80.4611 87.7092 79.2211C87.7092 77.9611 86.6092 77.1411 84.9692 77.1411ZM82.4692 83.6611H83.9492V87.4411H94.1292V88.6811H82.4692V83.6611ZM102.819 72.7011H111.439V73.6211C111.439 74.7011 111.439 76.2811 110.979 78.3611L109.519 78.2411C109.939 76.3411 109.979 74.9611 109.979 73.9211H102.819V72.7011ZM105.499 76.4611H106.979V79.9411C108.919 79.8611 110.919 79.7411 112.719 79.5011L112.819 80.6011C109.199 81.1811 105.039 81.2811 101.919 81.2811L101.739 80.0211C102.879 80.0211 104.159 80.0211 105.499 79.9811V76.4611ZM113.919 71.5811H115.419V76.4011H117.959V77.6611H115.419V82.5211H113.919V71.5811ZM109.799 82.7411C113.379 82.7411 115.579 83.9011 115.579 85.8611C115.579 87.8611 113.379 89.0411 109.799 89.0411C106.239 89.0411 104.039 87.8611 104.039 85.8611C104.039 83.9011 106.239 82.7411 109.799 82.7411ZM109.799 83.9211C107.179 83.9211 105.539 84.6611 105.539 85.8611C105.539 87.1011 107.179 87.8411 109.799 87.8411C112.439 87.8411 114.079 87.1011 114.079 85.8611C114.079 84.6611 112.439 83.9211 109.799 83.9211ZM121 73.3611H133.2V75.1011C133.2 77.2611 133.2 79.6411 132.58 83.1611L131.06 82.9811C131.7 79.6411 131.7 77.2011 131.7 75.1011V74.6011H121V73.3611ZM119.32 85.3211H125.54V79.0411H127.02V85.3211H135.14V86.5811H119.32V85.3211ZM141.24 72.5811H142.72V74.3411C142.72 76.8411 144.5 79.0411 147.02 79.9211L146.2 81.1011C144.28 80.3811 142.78 78.9411 142.02 77.0811C141.28 79.2011 139.68 80.8211 137.58 81.6211L136.8 80.4011C139.42 79.4411 141.24 77.1211 141.24 74.4011V72.5811ZM149.64 71.5811H151.14V81.9411H149.64V76.6011H145.76V75.3411H149.64V71.5811ZM145.42 82.4611C149.02 82.4611 151.22 83.6811 151.22 85.7611C151.22 87.8611 149.02 89.0411 145.42 89.0411C141.8 89.0411 139.58 87.8611 139.58 85.7611C139.58 83.6811 141.8 82.4611 145.42 82.4611ZM145.42 83.6611C142.72 83.6611 141.1 84.4411 141.1 85.7611C141.1 87.0611 142.72 87.8611 145.42 87.8611C148.08 87.8611 149.74 87.0611 149.74 85.7611C149.74 84.4411 148.08 83.6611 145.42 83.6611ZM155.08 73.5011H163.88V74.4011C163.88 75.8011 163.88 78.1011 163.38 81.3811L161.9 81.2611C162.38 78.3011 162.42 76.1411 162.42 74.7411H155.08V73.5011ZM157.86 78.5211H159.34V83.8811C161.28 83.8011 163.26 83.6811 165.06 83.4611L165.14 84.5611C161.5 85.1411 157.4 85.2211 154.3 85.2211L154.1 83.9611L157.86 83.9211V78.5211ZM166.16 71.5811H167.64V78.9411H170.5V80.2011H167.64V89.0811H166.16V71.5811ZM174.001 86.1011L172.901 89.8011H171.841L172.441 86.1011H174.001ZM184.019 71.9811H185.499V76.1211H195.879V77.3411H190.499V79.6211H197.659V80.8411H181.839V79.6211H188.999V77.3411H184.019V71.9811ZM183.619 82.6211H195.919V83.8411H193.199V87.6211H196.059V88.8411H183.439V87.6211H186.319V83.8411H183.619V82.6211ZM187.799 87.6211H191.719V83.8411H187.799V87.6211ZM199.32 80.8211H215.12V82.0411H199.32V80.8211ZM201.38 83.6211H202.88V87.4611H213.38V88.7011H201.38V83.6211ZM207.22 72.1811C210.96 72.1811 213.36 73.4811 213.36 75.6611C213.36 77.8411 210.96 79.1411 207.22 79.1411C203.48 79.1411 201.08 77.8411 201.08 75.6611C201.08 73.4811 203.48 72.1811 207.22 72.1811ZM207.22 73.4211C204.44 73.4211 202.62 74.2611 202.62 75.6611C202.62 77.0611 204.44 77.9211 207.22 77.9211C210.02 77.9211 211.82 77.0611 211.82 75.6611C211.82 74.2611 210.02 73.4211 207.22 73.4211ZM221.409 81.5611H237.269V82.8211H233.069V89.0811H231.549V82.8211H227.069V89.0811H225.529V82.8211H221.409V81.5611ZM229.289 72.3211C232.949 72.3211 235.389 73.7611 235.389 76.1011C235.389 78.4411 232.949 79.9011 229.289 79.9011C225.649 79.9011 223.189 78.4411 223.189 76.1011C223.189 73.7611 225.649 72.3211 229.289 72.3211ZM229.289 73.5211C226.569 73.5211 224.729 74.5411 224.729 76.1011C224.729 77.6811 226.569 78.6811 229.289 78.6811C232.009 78.6811 233.869 77.6811 233.869 76.1011C233.869 74.5411 232.009 73.5211 229.289 73.5211ZM251.75 71.5611H253.23V89.1011H251.75V79.2011H247.89V77.9811H251.75V71.5611ZM239.37 73.3811H248.85V74.6211H244.85V76.8011C244.85 79.7011 246.97 82.8811 249.47 84.0611L248.57 85.2611C246.61 84.2611 244.91 82.1411 244.13 79.7211C243.35 82.3011 241.61 84.5611 239.63 85.6211L238.75 84.4211C241.23 83.2011 243.35 79.9011 243.35 76.8011V74.6211H239.37V73.3811ZM257.15 73.1611H265.15V81.2411H257.15V73.1611ZM263.69 74.3811H258.61V80.0011H263.69V74.3811ZM268.45 71.5611H269.95V76.9211H272.55V78.1811H269.95V84.4011H268.45V71.5611ZM259.11 83.1811H260.59V87.4411H270.75V88.6811H259.11V83.1811ZM275.311 72.3211H288.231V73.5411H282.731C282.771 75.5811 285.731 77.1611 288.771 77.5011L288.211 78.7011C285.391 78.3411 282.711 77.0411 281.771 75.0811C280.811 77.0611 278.131 78.3411 275.311 78.7011L274.751 77.5011C277.791 77.1611 280.771 75.5811 280.811 73.5411H275.311V72.3211ZM273.851 80.4011H281.011V77.7411H282.491V80.4011H289.711V81.6211H273.851V80.4011ZM275.611 83.4211H287.691V89.0811H286.211V84.6211H275.611V83.4211ZM293.371 72.9811H305.151V74.2211H294.871V79.7811H305.351V81.0211H299.971V85.5811H307.191V86.8411H291.331V85.5811H298.491V81.0211H293.371V72.9811Z" fill="#222222"/>
<path d="M141.349 56.0547H121.012V53.5156H129.582V49.4141H123.161V37.8418H126.286V41.2842H135.978V37.8418H139.079V49.4141H132.682V53.5156H141.349V56.0547ZM135.978 46.9238V43.7744H126.286V46.9238H135.978ZM150.224 39.917C150.216 40.8447 150.395 41.7277 150.761 42.5659C151.136 43.396 151.701 44.1366 152.458 44.7876C153.223 45.4386 154.171 45.9391 155.302 46.2891L153.642 48.7061C152.486 48.3236 151.494 47.7702 150.664 47.0459C149.833 46.3216 149.174 45.4631 148.686 44.4702C148.19 45.6177 147.502 46.6105 146.623 47.4487C145.752 48.2788 144.698 48.9014 143.461 49.3164L141.777 46.875C142.973 46.4762 143.966 45.9066 144.755 45.166C145.545 44.4255 146.131 43.5832 146.513 42.6392C146.896 41.687 147.091 40.682 147.099 39.624V37.5977H150.224V39.917ZM144.853 54.3457C144.853 53.4587 145.158 52.6937 145.769 52.0508C146.387 51.3997 147.27 50.9033 148.417 50.5615C149.565 50.2197 150.916 50.0488 152.47 50.0488C154 50.0488 155.327 50.2197 156.45 50.5615C157.573 50.9033 158.439 51.3997 159.05 52.0508C159.66 52.6937 159.965 53.4587 159.965 54.3457C159.965 55.2409 159.66 56.0099 159.05 56.6528C158.439 57.3039 157.573 57.7962 156.45 58.1299C155.327 58.4717 154 58.6426 152.47 58.6426C150.916 58.6426 149.565 58.4717 148.417 58.1299C147.27 57.7962 146.387 57.3039 145.769 56.6528C145.158 56.0099 144.853 55.2409 144.853 54.3457ZM147.978 54.3457C147.97 54.9642 148.344 55.4281 149.101 55.7373C149.866 56.0465 150.989 56.2012 152.47 56.2012C155.416 56.2012 156.889 55.5827 156.889 54.3457C156.889 53.7435 156.511 53.2837 155.754 52.9663C155.005 52.6489 153.911 52.4902 152.47 52.4902C151.005 52.4902 149.886 52.6489 149.113 52.9663C148.348 53.2837 147.97 53.7435 147.978 54.3457ZM156.621 36.4258H159.746V41.626H162.749V44.2139H159.746V49.6094H156.621V36.4258ZM175.627 40.9424H163.274V38.4766H168.059V36.2305H171.16V38.4766H175.627V40.9424ZM164.373 45.8496C164.364 45.0358 164.58 44.3156 165.02 43.689C165.459 43.0542 166.073 42.5618 166.863 42.2119C167.66 41.8538 168.564 41.6748 169.573 41.6748C170.582 41.6748 171.485 41.8538 172.283 42.2119C173.08 42.5618 173.703 43.0542 174.15 43.689C174.606 44.3156 174.838 45.0358 174.846 45.8496C174.838 46.6634 174.606 47.3836 174.15 48.0103C173.703 48.6369 173.08 49.1211 172.283 49.4629C171.485 49.8047 170.582 49.9756 169.573 49.9756C168.556 49.9756 167.652 49.8047 166.863 49.4629C166.073 49.1211 165.459 48.6369 165.02 48.0103C164.58 47.3836 164.364 46.6634 164.373 45.8496ZM166.741 54.7607C166.741 53.9469 167.046 53.2471 167.656 52.6611C168.275 52.0671 169.158 51.6195 170.305 51.3184C171.461 51.0091 172.828 50.8545 174.407 50.8545C175.977 50.8545 177.336 51.0091 178.484 51.3184C179.631 51.6195 180.514 52.0671 181.133 52.6611C181.759 53.2471 182.073 53.9469 182.073 54.7607C182.073 55.5583 181.759 56.25 181.133 56.8359C180.514 57.4219 179.627 57.8695 178.472 58.1787C177.324 58.488 175.969 58.6426 174.407 58.6426C172.836 58.6426 171.473 58.488 170.317 58.1787C169.162 57.8695 168.275 57.4219 167.656 56.8359C167.046 56.25 166.741 55.5583 166.741 54.7607ZM167.278 45.8496C167.27 46.4355 167.469 46.8872 167.876 47.2046C168.291 47.522 168.857 47.6807 169.573 47.6807C170.289 47.6807 170.863 47.522 171.294 47.2046C171.725 46.8872 171.941 46.4355 171.941 45.8496C171.941 45.2718 171.725 44.8201 171.294 44.4946C170.863 44.1691 170.289 44.0023 169.573 43.9941C168.857 44.0023 168.291 44.1691 167.876 44.4946C167.469 44.812 167.27 45.2637 167.278 45.8496ZM170.012 54.7607C170.012 55.2653 170.387 55.6478 171.135 55.9082C171.884 56.1686 172.974 56.2988 174.407 56.2988C175.806 56.2988 176.877 56.1686 177.617 55.9082C178.358 55.6478 178.728 55.2653 178.728 54.7607C178.728 53.7435 177.288 53.2227 174.407 53.1982C172.958 53.2145 171.864 53.3488 171.123 53.6011C170.382 53.8534 170.012 54.2399 170.012 54.7607ZM175.823 45.752H178.85V43.7988H175.872V41.3086H178.85V36.4258H181.951V50.5859H178.85V48.2422H175.823V45.752ZM202.093 39.0869V39.3555C202.077 40.3727 202.036 41.3086 201.971 42.1631C201.906 43.0094 201.768 43.929 201.556 44.9219L198.504 44.7021C198.675 43.8558 198.793 43.0705 198.858 42.3462C198.924 41.6138 198.964 40.8773 198.98 40.1367H190.619V37.6465H202.093V39.0869ZM189.3 46.582C190.586 46.582 191.961 46.5698 193.426 46.5454V42.6025H196.527V46.46C199.042 46.3623 201.231 46.1995 203.094 45.9717L203.265 48.1445C201.174 48.5026 198.98 48.7467 196.686 48.877C194.391 49.0072 192.018 49.0723 189.569 49.0723L189.3 46.582ZM192.181 54.3701C192.181 53.5238 192.494 52.7913 193.121 52.1729C193.748 51.5544 194.643 51.0783 195.807 50.7446C196.97 50.411 198.342 50.2441 199.92 50.2441C201.499 50.2441 202.866 50.411 204.022 50.7446C205.186 51.0783 206.077 51.5544 206.695 52.1729C207.322 52.7913 207.635 53.5238 207.635 54.3701C207.635 55.2572 207.322 56.0181 206.695 56.6528C206.077 57.2876 205.186 57.7677 204.022 58.0933C202.866 58.4269 201.499 58.5938 199.92 58.5938C198.333 58.5938 196.958 58.4269 195.794 58.0933C194.639 57.7677 193.748 57.2876 193.121 56.6528C192.494 56.0181 192.181 55.2572 192.181 54.3701ZM195.355 54.3701C195.347 55.5745 196.869 56.1768 199.92 56.1768C201.41 56.1768 202.533 56.0303 203.29 55.7373C204.055 55.4443 204.437 54.9886 204.437 54.3701C204.437 53.8167 204.055 53.3895 203.29 53.0884C202.533 52.7873 201.438 52.6367 200.006 52.6367C198.508 52.6367 197.357 52.7873 196.551 53.0884C195.746 53.3813 195.347 53.8086 195.355 54.3701ZM204.291 36.4258H207.489V41.8945H210.199V44.4824H207.489V49.9756H204.291V36.4258ZM229.01 40.4541C229.002 41.748 228.982 42.8589 228.949 43.7866C228.925 44.7062 228.847 45.7886 228.717 47.0337C228.587 48.2707 228.384 49.6175 228.107 51.0742L224.982 50.7568C225.364 48.8932 225.609 47.2168 225.714 45.7275C225.82 44.2301 225.877 42.5944 225.885 40.8203H212.799V38.3545H229.01V40.4541ZM210.7 53.3936H217.951V45.752H221.051V53.3936H230.963V55.9326H210.7V53.3936Z" fill="#222222"/>
<path d="M472.784 113.719V132.078C472.784 134.122 472.296 135.926 471.32 137.488C470.343 139.051 468.969 140.262 467.198 141.121C465.428 141.967 463.383 142.391 461.066 142.391C458.748 142.391 456.704 141.967 454.933 141.121C453.175 140.262 451.808 139.051 450.831 137.488C449.868 135.926 449.386 134.122 449.386 132.078V113.719H455.245V131.609C455.245 132.69 455.486 133.66 455.968 134.52C456.463 135.366 457.146 136.03 458.019 136.512C458.904 136.993 459.92 137.234 461.066 137.234C462.224 137.234 463.247 136.993 464.132 136.512C465.017 136.03 465.695 135.366 466.163 134.52C466.645 133.66 466.886 132.69 466.886 131.609V113.719H472.784ZM475.148 142L484.953 113.719H492.492L502.258 142H495.969L493.84 135.477H483.605L481.477 142H475.148ZM492.355 130.906L488.82 120.086H488.625L485.09 130.906H492.355ZM544.173 132.43H511.673V128.523H544.173V132.43ZM515.345 134.773H540.189V145.594H535.15V138.719H515.345V134.773ZM515.736 110.828H540.384V114.695H520.736V116.688H539.564V120.359H520.736V122.508H540.697V126.297H515.736V110.828ZM573.959 124.5H578.608V128.641H573.959V145.594H568.92V110.047H573.959V124.5ZM545.092 135.555C548.842 135.555 551.772 135.529 553.881 135.477V132.43C552.631 132.182 551.538 131.759 550.6 131.16C549.663 130.561 548.94 129.819 548.432 128.934C547.924 128.048 547.67 127.065 547.67 125.984C547.67 124.682 548.035 123.523 548.764 122.508C549.506 121.492 550.541 120.704 551.87 120.145C553.198 119.585 554.715 119.305 556.42 119.305C558.1 119.305 559.597 119.585 560.913 120.145C562.241 120.704 563.276 121.492 564.018 122.508C564.773 123.523 565.157 124.682 565.17 125.984C565.157 127.065 564.89 128.055 564.37 128.953C563.849 129.839 563.113 130.581 562.163 131.18C561.225 131.779 560.131 132.195 558.881 132.43V135.301C562.045 135.132 564.806 134.878 567.163 134.539L567.475 138.172C564.35 138.745 561.114 139.129 557.768 139.324C554.422 139.52 550.893 139.617 547.182 139.617H545.756L545.092 135.555ZM545.795 113.992H553.881V110.242H558.881V113.992H566.889V117.898H545.795V113.992ZM552.397 125.984C552.384 126.909 552.735 127.625 553.452 128.133C554.181 128.628 555.17 128.875 556.42 128.875C557.631 128.875 558.588 128.628 559.291 128.133C560.008 127.625 560.366 126.909 560.366 125.984C560.366 125.086 560.008 124.383 559.291 123.875C558.575 123.367 557.618 123.107 556.42 123.094C555.183 123.107 554.2 123.367 553.471 123.875C552.742 124.383 552.384 125.086 552.397 125.984ZM607.711 114.305V114.734C607.685 116.362 607.62 117.859 607.516 119.227C607.411 120.581 607.19 122.052 606.852 123.641L601.969 123.289C602.242 121.935 602.431 120.678 602.535 119.52C602.639 118.348 602.704 117.169 602.73 115.984H589.352V112H607.711V114.305ZM587.242 126.297C589.299 126.297 591.5 126.277 593.844 126.238V119.93H598.805V126.102C602.828 125.945 606.331 125.685 609.312 125.32L609.586 128.797C606.24 129.37 602.73 129.76 599.059 129.969C595.387 130.177 591.591 130.281 587.672 130.281L587.242 126.297ZM591.852 138.758C591.852 137.404 592.353 136.232 593.355 135.242C594.358 134.253 595.79 133.491 597.652 132.957C599.514 132.423 601.708 132.156 604.234 132.156C606.76 132.156 608.948 132.423 610.797 132.957C612.659 133.491 614.085 134.253 615.074 135.242C616.077 136.232 616.578 137.404 616.578 138.758C616.578 140.177 616.077 141.395 615.074 142.41C614.085 143.426 612.659 144.194 610.797 144.715C608.948 145.249 606.76 145.516 604.234 145.516C601.695 145.516 599.495 145.249 597.633 144.715C595.784 144.194 594.358 143.426 593.355 142.41C592.353 141.395 591.852 140.177 591.852 138.758ZM596.93 138.758C596.917 140.685 599.352 141.648 604.234 141.648C606.617 141.648 608.414 141.414 609.625 140.945C610.849 140.477 611.461 139.747 611.461 138.758C611.461 137.872 610.849 137.189 609.625 136.707C608.414 136.225 606.663 135.984 604.371 135.984C601.975 135.984 600.133 136.225 598.844 136.707C597.555 137.176 596.917 137.859 596.93 138.758ZM611.227 110.047H616.344V118.797H620.68V122.938H616.344V131.727H611.227V110.047ZM650.778 116.492C650.765 118.562 650.733 120.34 650.68 121.824C650.641 123.296 650.518 125.027 650.309 127.02C650.101 128.999 649.776 131.154 649.333 133.484L644.333 132.977C644.945 129.995 645.335 127.312 645.505 124.93C645.674 122.534 645.765 119.917 645.778 117.078H624.841V113.133H650.778V116.492ZM621.481 137.195H633.083V124.969H638.044V137.195H653.903V141.258H621.481V137.195Z" fill="#4DA6FF"/>
<rect x="0.5" y="133.742" width="350" height="120.757" rx="19.5" fill="#4DA6FF" fill-opacity="0.15" stroke="white"/>
<path d="M46.9683 205.223H48.4483V209.363H58.8283V210.583H53.4483V212.863H60.6083V214.083H44.7883V212.863H51.9483V210.583H46.9683V205.223ZM46.5683 215.863H58.8683V217.083H56.1483V220.863H59.0083V222.083H46.3883V220.863H49.2683V217.083H46.5683V215.863ZM50.7483 220.863H54.6683V217.083H50.7483V220.863ZM62.2688 214.063H78.0688V215.283H62.2688V214.063ZM64.3288 216.863H65.8288V220.703H76.3288V221.943H64.3288V216.863ZM70.1688 205.423C73.9088 205.423 76.3088 206.723 76.3088 208.903C76.3088 211.083 73.9088 212.383 70.1688 212.383C66.4288 212.383 64.0288 211.083 64.0288 208.903C64.0288 206.723 66.4288 205.423 70.1688 205.423ZM70.1688 206.663C67.3888 206.663 65.5688 207.503 65.5688 208.903C65.5688 210.303 67.3888 211.163 70.1688 211.163C72.9688 211.163 74.7688 210.303 74.7688 208.903C74.7688 207.503 72.9688 206.663 70.1688 206.663ZM92.5692 204.803H94.0692V222.343H92.5692V204.803ZM80.7292 206.483H88.7892V212.663H82.2692V216.843C85.1692 216.843 87.7492 216.723 90.8692 216.223L91.0292 217.443C87.8292 217.983 85.1892 218.083 82.2092 218.083H80.7692V211.423H87.2892V207.703H80.7292V206.483ZM104.79 209.803H107.15V205.183H108.57V217.483H107.15V211.023H104.79V209.803ZM110.53 204.823H111.97V217.943H110.53V204.823ZM100.65 216.503H102.15V220.683H112.49V221.923H100.65V216.503ZM98.0497 206.283H104.65V207.523H99.4897V209.963H103.97V211.163H99.4897V213.763C102.05 213.763 103.61 213.663 105.47 213.303L105.61 214.503C103.61 214.923 101.97 214.983 99.1497 214.983H98.0497V206.283ZM123.97 207.423H127.57V204.843H129.07V217.903H127.57V212.283H123.97V211.043H127.57V208.683H123.97V207.423ZM119.13 205.783H120.61V208.063C120.61 210.643 122.39 213.063 124.87 214.043L124.05 215.223C122.15 214.423 120.63 212.823 119.89 210.843C119.15 212.983 117.59 214.683 115.53 215.523L114.75 214.343C117.31 213.323 119.13 210.823 119.13 208.063V205.783ZM117.85 216.563H119.35V220.683H129.49V221.923H117.85V216.563ZM137.74 205.963H145.84V213.083H137.74V205.963ZM144.4 207.163H139.18V211.883H144.4V207.163ZM149.62 204.823H151.12V214.883H149.62V204.823ZM139.7 216.103H144.86V214.383H146.38V216.103H151.54V217.283H146.38C146.38 219.023 149.22 220.723 152.14 221.103L151.64 222.263C149.04 221.903 146.64 220.643 145.62 219.003C144.56 220.663 142.12 221.903 139.52 222.263L139 221.103C141.96 220.743 144.86 219.063 144.86 217.283H139.7V216.103ZM166.03 205.463H167.59V206.463C167.59 208.943 170.83 211.083 173.91 211.543L173.29 212.743C170.63 212.283 167.95 210.763 166.83 208.623C165.73 210.803 163.03 212.283 160.33 212.743L159.71 211.543C162.83 211.083 166.03 209.003 166.03 206.463V205.463ZM158.89 214.723H174.71V215.963H167.51V222.323H166.03V215.963H158.89V214.723ZM179.03 216.203H190.67V222.323H189.17V217.443H179.03V216.203ZM189.17 204.823H190.67V215.223H189.17V204.823ZM181.31 205.883C183.95 205.883 185.85 207.563 185.85 210.003C185.85 212.443 183.95 214.123 181.31 214.123C178.69 214.123 176.77 212.443 176.77 210.003C176.77 207.563 178.69 205.883 181.31 205.883ZM181.31 207.163C179.53 207.163 178.23 208.323 178.23 210.003C178.23 211.703 179.53 212.863 181.31 212.863C183.09 212.863 184.39 211.703 184.39 210.003C184.39 208.323 183.09 207.163 181.31 207.163ZM193.851 212.843H209.711V213.983H205.391V215.623H207.711V219.323H197.271V221.023H208.271V222.123H195.791V218.263H206.251V216.723H195.751V215.623H198.171V213.983H193.851V212.843ZM195.871 205.343H207.651V208.923H197.371V210.483H207.971V211.583H195.911V207.903H206.171V206.443H195.871V205.343ZM199.631 215.623H203.911V213.983H199.631V215.623ZM213.571 219.343L212.471 223.043H211.411L212.011 219.343H213.571ZM234.269 204.803H235.749V222.343H234.269V212.443H230.409V211.223H234.269V204.803ZM221.889 206.623H231.369V207.863H227.369V210.043C227.369 212.943 229.489 216.123 231.989 217.303L231.089 218.503C229.129 217.503 227.429 215.383 226.649 212.963C225.869 215.543 224.129 217.803 222.149 218.863L221.269 217.663C223.749 216.443 225.869 213.143 225.869 210.043V207.863H221.889V206.623ZM241.87 216.083H253.25V222.063H241.87V216.083ZM251.77 217.283H243.33V220.843H251.77V217.283ZM251.75 204.843H253.25V215.103H251.75V212.063H248.27V210.843H251.75V208.523H248.27V207.283H251.75V204.843ZM239.57 205.763H247.11V210.523H241.11V213.183C244.45 213.183 246.11 213.143 248.17 212.783L248.31 214.003C246.13 214.383 244.41 214.423 240.85 214.423H239.63V209.363H245.63V207.003H239.57V205.763ZM268.43 204.843H269.93V210.623H272.55V211.883H269.93V217.963H268.43V204.843ZM256.43 206.983H260.85V204.843H262.35V206.983H266.77V208.203H256.43V206.983ZM261.59 209.203C264.07 209.203 265.77 210.483 265.77 212.463C265.77 214.423 264.07 215.703 261.59 215.703C259.11 215.703 257.43 214.423 257.43 212.463C257.43 210.483 259.11 209.203 261.59 209.203ZM261.59 210.383C259.95 210.383 258.85 211.203 258.85 212.463C258.85 213.703 259.95 214.523 261.59 214.523C263.23 214.523 264.33 213.703 264.33 212.463C264.33 211.203 263.23 210.383 261.59 210.383ZM259.09 216.903H260.57V220.683H270.75V221.923H259.09V216.903ZM285.931 204.803H287.431V210.063H290.051V211.303H287.431V217.483H285.931V204.803ZM274.711 206.323H282.411V207.583H276.191V213.123C279.691 213.123 281.691 213.023 284.011 212.543L284.191 213.763C281.751 214.243 279.691 214.383 276.051 214.383H274.711V206.323ZM276.591 216.223H278.071V220.683H288.231V221.923H276.591V216.223ZM303.251 204.803H304.771V211.963H307.591V213.223H304.771V222.323H303.251V204.803ZM300.271 206.703C300.271 211.643 297.951 216.143 292.311 218.963L291.471 217.803C295.971 215.543 298.411 212.103 298.751 207.943H292.271V206.703H300.271Z" fill="#222222"/>
<path d="M129.062 192.295H125.913V170.029H129.062V192.295ZM114.683 177.207H119.468V171.787H122.544V187.095H111.558V171.787H114.683V177.207ZM119.468 184.58V179.624H114.683V184.58H119.468ZM151.902 189.658H131.565V187.119H140.135V183.018H133.714V171.445H136.839V174.888H146.531V171.445H149.632V183.018H143.235V187.119H151.902V189.658ZM146.531 180.527V177.378H136.839V180.527H146.531ZM160.777 173.521C160.777 174.44 160.96 175.319 161.327 176.157C161.693 176.987 162.254 177.732 163.011 178.391C163.776 179.042 164.724 179.543 165.855 179.893L164.195 182.31C163.04 181.927 162.047 181.374 161.217 180.649C160.387 179.925 159.728 179.067 159.239 178.074C158.743 179.221 158.055 180.214 157.176 181.052C156.306 181.882 155.252 182.505 154.015 182.92L152.33 180.479C153.526 180.08 154.519 179.51 155.309 178.77C156.098 178.029 156.684 177.187 157.066 176.243C157.449 175.291 157.644 174.285 157.652 173.228V171.201H160.777V173.521ZM170.299 175.229H173.302V177.817H170.299V183.213H167.174V170.029H170.299V175.229ZM163.023 183.652C164.553 183.652 165.88 183.823 167.003 184.165C168.126 184.507 168.993 184.999 169.603 185.642C170.213 186.285 170.519 187.054 170.519 187.949C170.519 188.853 170.213 189.626 169.603 190.269C169.001 190.911 168.134 191.4 167.003 191.733C165.88 192.075 164.553 192.246 163.023 192.246C161.461 192.246 160.106 192.075 158.958 191.733C157.819 191.4 156.94 190.911 156.322 190.269C155.711 189.626 155.406 188.853 155.406 187.949C155.406 187.054 155.711 186.285 156.322 185.642C156.94 184.999 157.823 184.507 158.971 184.165C160.118 183.823 161.469 183.652 163.023 183.652ZM163.023 186.094C161.55 186.094 160.431 186.252 159.667 186.57C158.902 186.879 158.523 187.339 158.531 187.949C158.507 189.186 160.004 189.805 163.023 189.805C165.969 189.805 167.442 189.186 167.442 187.949C167.442 187.339 167.064 186.879 166.307 186.57C165.558 186.252 164.464 186.094 163.023 186.094ZM186.181 174.546H173.827V172.08H178.612V169.834H181.713V172.08H186.181V174.546ZM180.126 175.278C181.135 175.286 182.038 175.47 182.836 175.828C183.633 176.178 184.256 176.666 184.704 177.292C185.159 177.919 185.391 178.639 185.399 179.453C185.391 180.267 185.159 180.991 184.704 181.626C184.256 182.253 183.633 182.737 182.836 183.079C182.038 183.42 181.135 183.587 180.126 183.579C179.109 183.587 178.205 183.42 177.416 183.079C176.627 182.737 176.012 182.253 175.573 181.626C175.133 180.999 174.918 180.275 174.926 179.453C174.918 178.639 175.133 177.919 175.573 177.292C176.012 176.666 176.627 176.178 177.416 175.828C178.205 175.47 179.109 175.286 180.126 175.278ZM180.126 177.598C179.41 177.598 178.844 177.76 178.429 178.086C178.022 178.411 177.823 178.867 177.831 179.453C177.823 180.039 178.022 180.491 178.429 180.808C178.836 181.125 179.402 181.284 180.126 181.284C180.842 181.284 181.416 181.125 181.847 180.808C182.278 180.491 182.494 180.039 182.494 179.453C182.494 178.867 182.278 178.411 181.847 178.086C181.416 177.76 180.842 177.598 180.126 177.598ZM192.504 184.189H189.403V181.846H186.376V179.355H189.403V177.402H186.425V174.912H189.403V170.029H192.504V184.189ZM184.96 184.458C186.522 184.458 187.882 184.613 189.037 184.922C190.193 185.231 191.08 185.679 191.698 186.265C192.317 186.851 192.626 187.55 192.626 188.364C192.626 189.162 192.313 189.854 191.686 190.439C191.068 191.025 190.181 191.473 189.025 191.782C187.877 192.091 186.522 192.246 184.96 192.246C183.389 192.246 182.026 192.091 180.871 191.782C179.723 191.473 178.84 191.025 178.222 190.439C177.603 189.854 177.294 189.162 177.294 188.364C177.294 187.55 177.603 186.851 178.222 186.265C178.84 185.679 179.723 185.231 180.871 184.922C182.026 184.613 183.389 184.458 184.96 184.458ZM184.96 186.802C182.03 186.826 180.565 187.347 180.565 188.364C180.565 188.861 180.944 189.243 181.701 189.512C182.458 189.772 183.544 189.902 184.96 189.902C186.352 189.902 187.418 189.772 188.158 189.512C188.907 189.243 189.281 188.861 189.281 188.364C189.281 187.347 187.841 186.826 184.96 186.802ZM212.646 172.69V172.959C212.63 174.001 212.59 174.941 212.524 175.779C212.459 176.617 212.321 177.533 212.109 178.525L209.058 178.306C209.334 176.841 209.489 175.319 209.521 173.74H201.172V171.25H212.646V172.69ZM207.08 180.051C209.562 179.954 211.751 179.795 213.647 179.575L213.818 181.748C211.735 182.114 209.55 182.362 207.263 182.493C204.985 182.615 202.604 182.676 200.122 182.676L199.854 180.186H200.879C201.392 180.177 201.904 180.169 202.417 180.161C202.938 180.153 203.459 180.145 203.979 180.137V176.206H207.08V180.051ZM218.042 175.498H220.752V178.086H218.042V183.579H214.844V170.029H218.042V175.498ZM210.474 183.848C212.044 183.848 213.411 184.014 214.575 184.348C215.739 184.682 216.63 185.162 217.249 185.789C217.875 186.407 218.188 187.135 218.188 187.974C218.188 188.861 217.875 189.622 217.249 190.256C216.63 190.891 215.743 191.371 214.587 191.697C213.432 192.03 212.061 192.197 210.474 192.197C208.887 192.197 207.511 192.03 206.348 191.697C205.192 191.363 204.301 190.879 203.674 190.244C203.048 189.618 202.734 188.861 202.734 187.974C202.734 187.135 203.048 186.407 203.674 185.789C204.301 185.162 205.196 184.682 206.36 184.348C207.532 184.014 208.903 183.848 210.474 183.848ZM210.474 186.24C209.009 186.24 207.882 186.391 207.092 186.692C206.303 186.985 205.908 187.412 205.908 187.974C205.908 188.592 206.295 189.048 207.068 189.341C207.841 189.634 208.976 189.78 210.474 189.78C211.963 189.78 213.086 189.634 213.843 189.341C214.608 189.048 214.99 188.592 214.99 187.974C214.99 187.412 214.6 186.985 213.818 186.692C213.045 186.391 211.93 186.24 210.474 186.24ZM239.563 174.058C239.563 175.319 239.547 176.422 239.515 177.366C239.49 178.302 239.409 179.392 239.271 180.637C239.14 181.874 238.937 183.221 238.66 184.678L235.535 184.36C235.91 182.505 236.15 180.837 236.255 179.355C236.361 177.874 236.422 176.23 236.438 174.424H223.353V171.958H239.563V174.058ZM241.517 189.536H221.253V186.997H228.504V179.355H231.604V186.997H241.517V189.536Z" fill="#222222"/>
<path d="M120 133.244V121.758" stroke="#4C96F9" stroke-width="3"/>
<path d="M447 128H419C407.954 128 399 136.954 399 148V174.122C399 185.167 390.046 194.122 379 194.122H351" stroke="#4C96F9" stroke-width="3"/>
<path d="M351 60.8789H379C390.046 60.8789 399 69.8332 399 80.8789V108.001C399 119.046 407.954 128.001 419 128.001H447" stroke="#4C96F9" stroke-width="3"/>
</svg>
