<svg width="675" height="358" viewBox="0 0 675 358" fill="none" xmlns="http://www.w3.org/2000/svg">
<rect width="675" height="358" rx="30" fill="white"/>
<circle cx="337.5" cy="174.5" r="116.5" fill="#EBF5FF"/>
<circle cx="337.5" cy="174.5" r="115.75" stroke="#4DA6FF" stroke-opacity="0.3" stroke-width="1.5"/>
<circle cx="337" cy="70" r="46" fill="#4DA6FF"/>
<circle cx="229" cy="158" r="46" fill="#4DA6FF"/>
<circle cx="263" cy="276" r="46" fill="#4DA6FF"/>
<circle cx="412" cy="276" r="46" fill="#4DA6FF"/>
<circle cx="446" cy="158" r="46" fill="#4DA6FF"/>
<path d="M410.803 79L411.561 84.9729L406.001 86.0135" stroke="#4DA6FF" stroke-width="2" stroke-linecap="round"/>
<path d="M449.303 218.51L443.822 221.003L441.182 216" stroke="#4DA6FF" stroke-width="2" stroke-linecap="round"/>
<path d="M342.635 294.754L338.629 290.259L342.623 286.254" stroke="#4DA6FF" stroke-width="2" stroke-linecap="round"/>
<path d="M227.604 224.07L230.123 218.602L235.391 220.664" stroke="#4DA6FF" stroke-width="2" stroke-linecap="round"/>
<path d="M260 84.1074L266.015 83.8352L266.602 89.4615" stroke="#4DA6FF" stroke-width="2" stroke-linecap="round"/>
<path d="M318.239 72.18H335.971V74.16H331.659V80.76H329.195V74.16H324.927V80.76H322.441V74.16H318.239V72.18ZM320.065 66.24C320.065 63.578 322.903 61.928 327.039 61.928C331.197 61.928 334.035 63.578 334.035 66.24C334.035 68.902 331.197 70.574 327.039 70.574C322.903 70.574 320.065 68.902 320.065 66.24ZM322.551 66.24C322.551 67.78 324.311 68.638 327.039 68.638C329.789 68.638 331.571 67.78 331.571 66.24C331.571 64.744 329.789 63.842 327.039 63.842C324.311 63.842 322.551 64.744 322.551 66.24ZM350.756 61.202H353.176V71.696H350.756V61.202ZM337.358 66.614C337.358 63.93 339.58 62.06 342.594 62.06C345.608 62.06 347.83 63.93 347.83 66.614C347.83 69.32 345.608 71.19 342.594 71.19C339.58 71.19 337.358 69.32 337.358 66.614ZM339.712 66.614C339.712 68.198 340.922 69.188 342.594 69.188C344.266 69.188 345.476 68.198 345.476 66.614C345.476 65.052 344.266 64.04 342.594 64.04C340.922 64.04 339.712 65.052 339.712 66.614ZM340.328 80.54V72.62H342.726V74.644H350.8V72.62H353.176V80.54H340.328ZM342.726 78.604H350.8V76.514H342.726V78.604Z" fill="white"/>
<path d="M219.667 152.372H223.077V147.202H225.497V161.48H223.077V154.33H219.667V152.372ZM209.173 157.3C212.275 156.244 213.925 153.67 213.925 151.074V150.546H209.855V148.61H220.371V150.546H216.367V151.074C216.367 153.45 217.929 155.892 220.921 156.904L219.733 158.796C217.555 158.048 216.037 156.552 215.179 154.682C214.343 156.75 212.715 158.422 210.405 159.214L209.173 157.3ZM212.715 166.386V160.27H215.157V164.45H225.981V166.386H212.715ZM240.986 147.18H243.406V153.758H246.046V155.738H243.406V162.492H240.986V147.18ZM227.83 158.576C229.282 158.576 230.976 158.554 232.736 158.51V157.256C230.58 156.97 229.238 155.914 229.238 154.308C229.238 152.416 231.086 151.294 233.902 151.294C236.74 151.294 238.61 152.416 238.61 154.308C238.61 155.892 237.268 156.948 235.134 157.234V158.4C236.806 158.29 238.478 158.158 240.018 157.916L240.216 159.588C236.102 160.336 231.482 160.424 228.138 160.446L227.83 158.576ZM228.336 150.656V148.896H232.736V147.092H235.134V148.896H239.49V150.656H228.336ZM230.624 166.386V161.502H233.066V164.45H244.088V166.386H230.624ZM231.526 154.308C231.526 155.188 232.428 155.672 233.902 155.672C235.398 155.672 236.322 155.188 236.322 154.308C236.322 153.428 235.398 152.944 233.902 152.944C232.428 152.944 231.526 153.428 231.526 154.308Z" fill="white"/>
<path d="M246.351 268.39H259.771V270.106C259.771 271.954 259.771 273.956 259.265 276.75H261.949V278.73H254.249V286.804H251.807V278.73H244.239V276.75H256.823C257.373 274.11 257.395 272.108 257.395 270.326H246.351V268.39ZM277.46 267.18H279.748V286.76H277.46V276.728H275.414V285.836H273.148V267.554H275.414V274.77H277.46V267.18ZM263.644 281.744V269.292H271.256V281.744H263.644ZM265.888 279.852H269.012V271.184H265.888V279.852Z" fill="white"/>
<path d="M393.239 278.18H410.971V280.16H406.659V286.76H404.195V280.16H399.927V286.76H397.441V280.16H393.239V278.18ZM395.065 272.24C395.065 269.578 397.903 267.928 402.039 267.928C406.197 267.928 409.035 269.578 409.035 272.24C409.035 274.902 406.197 276.574 402.039 276.574C397.903 276.574 395.065 274.902 395.065 272.24ZM397.551 272.24C397.551 273.78 399.311 274.638 402.039 274.638C404.789 274.638 406.571 273.78 406.571 272.24C406.571 270.744 404.789 269.842 402.039 269.842C399.311 269.842 397.551 270.744 397.551 272.24ZM412.622 269.116H423.6V271.118H419.332V272.746C419.332 275.98 421.224 279.346 424.326 280.666L422.984 282.58C420.718 281.568 419.046 279.522 418.144 277.036C417.264 279.72 415.57 281.986 413.282 283.064L411.896 281.15C414.998 279.72 416.89 276.09 416.89 272.746V271.118H412.622V269.116ZM425.734 286.782V267.202H428.154V286.782H425.734Z" fill="white"/>
<path d="M435.181 156.726H437.711V149.554H439.955V167.836H437.711V158.684H435.181V156.726ZM426.931 163.15C429.659 161.544 430.847 158.244 430.847 155.164V154.57H427.591V152.612H430.847V149.84H433.157V152.612H436.391V154.57H433.157V155.164C433.157 158.178 434.389 161.258 437.095 162.71L435.753 164.514C433.971 163.546 432.739 161.852 432.035 159.784C431.353 162.006 430.121 163.92 428.295 164.976L426.931 163.15ZM441.649 168.76V149.18H443.959V168.76H441.649ZM459.844 149.202H462.264V161.016H459.844V156.968H457.094V155.01H459.844V149.202ZM446.05 152.942V151.028H450.538V149.004H452.936V151.028H457.446V152.942H446.05ZM447.106 157.232C447.106 155.164 449.064 153.712 451.748 153.712C454.454 153.712 456.368 155.164 456.368 157.232C456.368 159.3 454.454 160.73 451.748 160.73C449.064 160.73 447.106 159.3 447.106 157.232ZM449.35 168.54V161.918H462.264V168.54H449.35ZM449.438 157.232C449.438 158.288 450.384 158.948 451.748 158.948C453.112 158.948 454.058 158.288 454.058 157.232C454.058 156.154 453.112 155.516 451.748 155.516C450.384 155.516 449.438 156.154 449.438 157.232ZM451.726 166.626H459.91V163.854H451.726V166.626Z" fill="white"/>
</svg>
