<svg width="132" height="132" viewBox="0 0 132 132" fill="none" xmlns="http://www.w3.org/2000/svg">
<path opacity="0.2" d="M8.25 35.6859V97.5609C55.5019 74.4764 76.4981 119.398 123.75 96.3131V34.4381C76.4981 57.5226 55.5019 12.6013 8.25 35.6859ZM66 78.3745C63.5525 78.3745 61.1599 77.6487 59.1248 76.2889C57.0898 74.9291 55.5036 72.9964 54.567 70.7352C53.6304 68.4739 53.3853 65.9857 53.8628 63.5852C54.3403 61.1847 55.5189 58.9797 57.2496 57.249C58.9802 55.5184 61.1852 54.3397 63.5858 53.8623C65.9863 53.3848 68.4745 53.6298 70.7357 54.5665C72.9969 55.5031 74.9297 57.0892 76.2894 59.1243C77.6492 61.1593 78.375 63.5519 78.375 65.9995C78.375 69.2815 77.0712 72.4292 74.7505 74.7499C72.4297 77.0707 69.2821 78.3745 66 78.3745Z" fill="#4DA6FF" fill-opacity="0.6"/>
<path d="M125.936 30.9368C125.342 30.5662 124.664 30.3528 123.965 30.3167C123.266 30.2806 122.569 30.423 121.94 30.7305C99.8044 41.5587 83.9953 36.4849 67.2839 31.1327C49.7527 25.5176 31.5769 19.7168 6.46594 31.9784C5.76433 32.3149 5.17222 32.8431 4.758 33.5018C4.34377 34.1605 4.12433 34.923 4.125 35.7012V97.5401C4.1249 98.24 4.30288 98.9284 4.64219 99.5405C4.98151 100.153 5.47099 100.668 6.06458 101.039C6.65816 101.41 7.33634 101.624 8.03527 101.66C8.73421 101.696 9.43092 101.554 10.0598 101.247C32.1956 90.4193 48.0047 95.493 64.7419 100.845C74.6625 104.016 84.7687 107.249 96.195 107.249C105.007 107.249 114.618 105.331 125.539 99.9996C126.233 99.6609 126.818 99.1344 127.227 98.48C127.636 97.8255 127.854 97.0693 127.854 96.2974V34.4585C127.861 33.7568 127.688 33.0651 127.352 32.4489C127.016 31.8326 126.529 31.3122 125.936 30.9368ZM119.625 93.6729C98.6906 103.042 83.4023 98.1537 67.2581 92.9923C57.3375 89.8212 47.2313 86.5882 35.805 86.5882C27.7773 86.6272 19.8312 88.2024 12.3956 91.2288V38.3257C33.33 28.9568 48.6183 33.8449 64.7625 39.0063C80.9067 44.1677 97.5253 49.4993 119.625 40.7801V93.6729ZM66 49.4993C62.7366 49.4993 59.5465 50.467 56.8331 52.28C54.1197 54.0931 52.0048 56.67 50.756 59.685C49.5071 62.7 49.1804 66.0176 49.817 69.2183C50.4537 72.419 52.0252 75.359 54.3327 77.6666C56.6403 79.9741 59.5803 81.5456 62.781 82.1823C65.9817 82.8189 69.2993 82.4922 72.3143 81.2433C75.3293 79.9945 77.9062 77.8796 79.7192 75.1662C81.5323 72.4528 82.5 69.2627 82.5 65.9993C82.5 61.6232 80.7616 57.4264 77.6673 54.332C74.5729 51.2377 70.3761 49.4993 66 49.4993ZM66 74.2493C64.3683 74.2493 62.7733 73.7654 61.4165 72.8589C60.0598 71.9524 59.0024 70.6639 58.378 69.1564C57.7536 67.6489 57.5902 65.9901 57.9085 64.3898C58.2268 62.7895 59.0126 61.3194 60.1664 60.1657C61.3202 59.0119 62.7902 58.2261 64.3905 57.9078C65.9908 57.5895 67.6497 57.7529 69.1571 58.3773C70.6646 59.0017 71.9531 60.0591 72.8596 61.4158C73.7661 62.7725 74.25 64.3676 74.25 65.9993C74.25 68.1873 73.3808 70.2857 71.8336 71.8329C70.2865 73.3801 68.188 74.2493 66 74.2493ZM28.875 49.4993V74.2493C28.875 75.3433 28.4404 76.3925 27.6668 77.1661C26.8932 77.9397 25.844 78.3743 24.75 78.3743C23.656 78.3743 22.6068 77.9397 21.8332 77.1661C21.0596 76.3925 20.625 75.3433 20.625 74.2493V49.4993C20.625 48.4053 21.0596 47.3561 21.8332 46.5825C22.6068 45.8089 23.656 45.3743 24.75 45.3743C25.844 45.3743 26.8932 45.8089 27.6668 46.5825C28.4404 47.3561 28.875 48.4053 28.875 49.4993ZM103.125 82.4993V57.7493C103.125 56.6553 103.56 55.6061 104.333 54.8325C105.107 54.0589 106.156 53.6243 107.25 53.6243C108.344 53.6243 109.393 54.0589 110.167 54.8325C110.94 55.6061 111.375 56.6553 111.375 57.7493V82.4993C111.375 83.5933 110.94 84.6425 110.167 85.4161C109.393 86.1897 108.344 86.6243 107.25 86.6243C106.156 86.6243 105.107 86.1897 104.333 85.4161C103.56 84.6425 103.125 83.5933 103.125 82.4993Z" fill="#4DA6FF"/>
</svg>
