<svg width="120" height="120" viewBox="0 0 120 120" fill="none" xmlns="http://www.w3.org/2000/svg">
<path opacity="0.5" d="M60 38.75C57.2094 38.75 54.4461 39.2996 51.868 40.3676C49.2898 41.4355 46.9472 43.0007 44.974 44.974C43.0007 46.9472 41.4355 49.2898 40.3676 51.868C39.2996 54.4461 38.75 57.2094 38.75 60C38.75 62.7906 39.2996 65.5539 40.3676 68.132C41.4355 70.7102 43.0007 73.0528 44.974 75.026C46.9472 76.9993 49.2898 78.5645 51.868 79.6324C54.4461 80.7004 57.2094 81.25 60 81.25C65.6359 81.25 71.0409 79.0112 75.026 75.026C79.0112 71.0409 81.25 65.6359 81.25 60C81.25 54.3642 79.0112 48.9591 75.026 44.974C71.0409 40.9888 65.6359 38.75 60 38.75ZM31.25 60C31.25 52.375 34.279 45.0624 39.6707 39.6707C45.0624 34.279 52.375 31.25 60 31.25C67.625 31.25 74.9377 34.279 80.3293 39.6707C85.721 45.0624 88.75 52.375 88.75 60C88.75 67.625 85.721 74.9377 80.3293 80.3293C74.9377 85.721 67.625 88.75 60 88.75C52.375 88.75 45.0624 85.721 39.6707 80.3293C34.279 74.9377 31.25 67.625 31.25 60Z" fill="#4DA6FF" fill-opacity="0.6"/>
<path d="M23.7503 60.0008C23.7531 52.2371 26.2484 44.6793 30.8689 38.4401C35.4894 32.2009 41.9909 27.61 49.4164 25.3432C56.8419 23.0764 64.799 23.2535 72.1162 25.8484C79.4335 28.4433 85.7244 33.3189 90.0627 39.7575C94.4011 46.196 96.5577 53.8573 96.215 61.6135C95.8724 69.3698 93.0486 76.8111 88.1594 82.842C83.2702 88.8729 76.5739 93.1748 69.0563 95.1143C61.5387 97.0539 53.597 96.5286 46.4003 93.6158C45.9408 93.4137 45.4454 93.3058 44.9435 93.2987C44.4415 93.2916 43.9433 93.3853 43.4782 93.5743C43.0132 93.7634 42.5908 94.0438 42.2362 94.3991C41.8815 94.7544 41.6018 95.1773 41.4137 95.6427C41.2255 96.1081 41.1327 96.6065 41.1407 97.1085C41.1488 97.6104 41.2575 98.1056 41.4605 98.5647C41.6635 99.0239 41.9566 99.4376 42.3225 99.7813C42.6883 100.125 43.1195 100.392 43.5903 100.566C52.9446 104.348 63.3188 104.781 72.9555 101.791C82.5923 98.8005 90.8993 92.5712 96.4695 84.1581C102.04 75.7449 104.531 65.6649 103.52 55.6256C102.51 45.5863 98.0609 36.2047 90.9262 29.07C83.7914 21.9353 74.4099 17.486 64.3706 16.4758C54.3312 15.4655 44.2513 17.9565 35.8381 23.5267C27.4249 29.0968 21.1957 37.4038 18.2055 47.0406C15.2153 56.6774 15.648 67.0515 19.4303 76.4058C19.6044 76.8767 19.8711 77.3078 20.2149 77.6737C20.5586 78.0395 20.9723 78.3327 21.4314 78.5357C21.8906 78.7386 22.3858 78.8474 22.8877 78.8554C23.3896 78.8635 23.8881 78.7707 24.3535 78.5825C24.8189 78.3943 25.2418 78.1147 25.597 77.76C25.9523 77.4054 26.2328 76.983 26.4218 76.5179C26.6109 76.0529 26.7046 75.5546 26.6975 75.0527C26.6903 74.5507 26.5825 74.0553 26.3803 73.5958C24.6322 69.277 23.739 64.66 23.7503 60.0008Z" fill="#4DA6FF"/>
<path d="M60.0003 70C62.1491 69.9992 64.2404 69.3062 65.9646 68.0237C67.6887 66.7412 68.9539 64.9375 69.5727 62.8797C70.1915 60.8219 70.131 58.6196 69.4001 56.5989C68.6693 54.5782 67.307 52.8466 65.5151 51.6607C63.7231 50.4749 61.5968 49.8977 59.4512 50.0149C57.3056 50.132 55.2548 50.9371 53.6026 52.311C51.9504 53.6849 50.7847 55.5544 50.2781 57.6427C49.7716 59.7309 49.9512 61.9268 50.7903 63.905L34.8453 79.85L34.7003 80H28.8503C26.8618 80.0018 24.9554 80.7931 23.5503 82.2L15.3653 90.385C14.8415 90.9094 14.4849 91.5773 14.3404 92.3043C14.196 93.0313 14.2703 93.7848 14.5538 94.4696C14.8374 95.1544 15.3175 95.7399 15.9336 96.152C16.5497 96.5641 17.2741 96.7844 18.0153 96.785H23.2153V101.985C23.2159 102.726 23.4362 103.451 23.8483 104.067C24.2604 104.683 24.8458 105.163 25.5306 105.446C26.2155 105.73 26.9689 105.804 27.6959 105.66C28.4229 105.515 29.0908 105.159 29.6153 104.635L37.8003 96.445C39.206 95.0411 39.9972 93.1367 40.0003 91.15V85.3L40.1503 85.155L56.0903 69.215C57.2903 69.725 58.6103 70.005 59.9953 70.005M34.6953 85.005L34.9953 85.3V91.15C34.9938 91.8125 34.7294 92.4473 34.2603 92.915L28.2103 98.965V94.29C28.2103 93.627 27.9469 92.9911 27.478 92.5222C27.0092 92.0534 26.3733 91.79 25.7103 91.79H21.0303L27.0803 85.74C27.3126 85.5056 27.5891 85.3195 27.8938 85.1925C28.1984 85.0655 28.5252 85.0001 28.8553 85L34.6953 85.005Z" fill="#4DA6FF"/>
</svg>
